<?xml version="1.0" encoding="utf-8" standalone="no"?>
<!DOCTYPE svg PUBLIC "-//W3C//DTD SVG 1.1//EN"
  "http://www.w3.org/Graphics/SVG/1.1/DTD/svg11.dtd">
<svg xmlns:xlink="http://www.w3.org/1999/xlink" width="1296pt" height="720pt" viewBox="0 0 1296 720" xmlns="http://www.w3.org/2000/svg" version="1.1">
 <metadata>
  <rdf:RDF xmlns:dc="http://purl.org/dc/elements/1.1/" xmlns:cc="http://creativecommons.org/ns#" xmlns:rdf="http://www.w3.org/1999/02/22-rdf-syntax-ns#">
   <cc:Work>
    <dc:type rdf:resource="http://purl.org/dc/dcmitype/StillImage"/>
    <dc:date>2022-12-14T10:10:34.992032</dc:date>
    <dc:format>image/svg+xml</dc:format>
    <dc:creator>
     <cc:Agent>
      <dc:title>Matplotlib v3.5.3, https://matplotlib.org/</dc:title>
     </cc:Agent>
    </dc:creator>
   </cc:Work>
  </rdf:RDF>
 </metadata>
 <defs>
  <style type="text/css">*{stroke-linejoin: round; stroke-linecap: butt}</style>
 </defs>
 <g id="figure_1">
  <g id="patch_1">
   <path d="M 0 720 
L 1296 720 
L 1296 0 
L 0 0 
z
" style="fill: #ffffff"/>
  </g>
  <g id="axes_1">
   <g id="patch_2">
    <path d="M 203.870133 238.744956 
C 183.203394 238.744956 162.875752 244.028622 144.824821 254.092319 
C 126.77389 264.156016 111.592025 278.669497 100.726349 296.249349 
C 89.860672 313.8292 83.66775 333.898527 82.737885 354.544336 
C 81.80802 375.190146 86.171728 395.734931 95.413063 414.22038 
L 203.870133 360 
L 203.870133 238.744956 
z
" style="fill: #e8112d"/>
   </g>
   <g id="patch_3">
    <path d="M 95.413063 414.22038 
C 98.832132 421.059549 102.890455 427.560007 107.533777 433.634858 
C 112.1771 439.709709 117.38464 445.331761 123.086782 450.425859 
L 203.870133 360 
L 95.413063 414.22038 
z
" style="fill: #da291c"/>
   </g>
   <g id="patch_4">
    <path d="M 123.086782 450.425859 
C 129.877151 456.492141 137.329268 461.774299 145.302092 466.172361 
C 153.274916 470.570424 161.717827 474.056467 170.471031 476.564513 
L 203.870133 360 
L 123.086782 450.425859 
z
" style="fill: #83cf39"/>
   </g>
   <g id="patch_5">
    <path d="M 170.471031 476.564513 
C 178.172022 478.77107 186.072762 480.209041 194.057364 480.857334 
C 202.041966 481.505628 210.071197 481.361059 218.027286 480.425748 
L 203.870133 360 
L 170.471031 476.564513 
z
" style="fill: #009933"/>
   </g>
   <g id="patch_6">
    <path d="M 218.027286 480.425748 
C 224.89703 479.618146 231.685088 478.224192 238.317147 476.259146 
C 244.949205 474.294099 251.400973 471.765158 257.601817 468.700009 
L 203.870133 360 
L 218.027286 480.425748 
z
" style="fill: #006ab3"/>
   </g>
   <g id="patch_7">
    <path d="M 257.601817 468.700009 
C 285.32135 454.99792 306.776232 431.198597 317.540579 402.211555 
C 328.304926 373.224514 327.583897 341.190159 315.526231 312.716795 
L 203.870133 360 
L 257.601817 468.700009 
z
" style="fill: #52bdec"/>
   </g>
   <g id="patch_8">
    <path d="M 315.526231 312.716795 
C 313.255229 307.353976 310.600811 302.161732 307.583599 297.180395 
C 304.566386 292.199059 301.194211 287.441563 297.493269 282.944863 
L 203.870133 360 
L 315.526231 312.716795 
z
" style="fill: #000077"/>
   </g>
   <g id="patch_9">
    <path d="M 297.493269 282.944863 
C 286.118307 269.124116 271.82286 257.992082 255.636256 250.350311 
C 239.449652 242.708541 221.769946 238.744958 203.870147 238.744956 
L 203.870133 360 
L 297.493269 282.944863 
z
" style="fill: #dddd00"/>
   </g>
   <g id="matplotlib.axis_1"/>
   <g id="matplotlib.axis_2"/>
   <g id="text_1">
    <!-- Social Democrats -->
    <g transform="translate(3.004158 292.633658)scale(0.1 -0.1)">
     <defs>
      <path id="DejaVuSans-53" d="M 3425 4513 
L 3425 3897 
Q 3066 4069 2747 4153 
Q 2428 4238 2131 4238 
Q 1616 4238 1336 4038 
Q 1056 3838 1056 3469 
Q 1056 3159 1242 3001 
Q 1428 2844 1947 2747 
L 2328 2669 
Q 3034 2534 3370 2195 
Q 3706 1856 3706 1288 
Q 3706 609 3251 259 
Q 2797 -91 1919 -91 
Q 1588 -91 1214 -16 
Q 841 59 441 206 
L 441 856 
Q 825 641 1194 531 
Q 1563 422 1919 422 
Q 2459 422 2753 634 
Q 3047 847 3047 1241 
Q 3047 1584 2836 1778 
Q 2625 1972 2144 2069 
L 1759 2144 
Q 1053 2284 737 2584 
Q 422 2884 422 3419 
Q 422 4038 858 4394 
Q 1294 4750 2059 4750 
Q 2388 4750 2728 4690 
Q 3069 4631 3425 4513 
z
" transform="scale(0.015625)"/>
      <path id="DejaVuSans-6f" d="M 1959 3097 
Q 1497 3097 1228 2736 
Q 959 2375 959 1747 
Q 959 1119 1226 758 
Q 1494 397 1959 397 
Q 2419 397 2687 759 
Q 2956 1122 2956 1747 
Q 2956 2369 2687 2733 
Q 2419 3097 1959 3097 
z
M 1959 3584 
Q 2709 3584 3137 3096 
Q 3566 2609 3566 1747 
Q 3566 888 3137 398 
Q 2709 -91 1959 -91 
Q 1206 -91 779 398 
Q 353 888 353 1747 
Q 353 2609 779 3096 
Q 1206 3584 1959 3584 
z
" transform="scale(0.015625)"/>
      <path id="DejaVuSans-63" d="M 3122 3366 
L 3122 2828 
Q 2878 2963 2633 3030 
Q 2388 3097 2138 3097 
Q 1578 3097 1268 2742 
Q 959 2388 959 1747 
Q 959 1106 1268 751 
Q 1578 397 2138 397 
Q 2388 397 2633 464 
Q 2878 531 3122 666 
L 3122 134 
Q 2881 22 2623 -34 
Q 2366 -91 2075 -91 
Q 1284 -91 818 406 
Q 353 903 353 1747 
Q 353 2603 823 3093 
Q 1294 3584 2113 3584 
Q 2378 3584 2631 3529 
Q 2884 3475 3122 3366 
z
" transform="scale(0.015625)"/>
      <path id="DejaVuSans-69" d="M 603 3500 
L 1178 3500 
L 1178 0 
L 603 0 
L 603 3500 
z
M 603 4863 
L 1178 4863 
L 1178 4134 
L 603 4134 
L 603 4863 
z
" transform="scale(0.015625)"/>
      <path id="DejaVuSans-61" d="M 2194 1759 
Q 1497 1759 1228 1600 
Q 959 1441 959 1056 
Q 959 750 1161 570 
Q 1363 391 1709 391 
Q 2188 391 2477 730 
Q 2766 1069 2766 1631 
L 2766 1759 
L 2194 1759 
z
M 3341 1997 
L 3341 0 
L 2766 0 
L 2766 531 
Q 2569 213 2275 61 
Q 1981 -91 1556 -91 
Q 1019 -91 701 211 
Q 384 513 384 1019 
Q 384 1609 779 1909 
Q 1175 2209 1959 2209 
L 2766 2209 
L 2766 2266 
Q 2766 2663 2505 2880 
Q 2244 3097 1772 3097 
Q 1472 3097 1187 3025 
Q 903 2953 641 2809 
L 641 3341 
Q 956 3463 1253 3523 
Q 1550 3584 1831 3584 
Q 2591 3584 2966 3190 
Q 3341 2797 3341 1997 
z
" transform="scale(0.015625)"/>
      <path id="DejaVuSans-6c" d="M 603 4863 
L 1178 4863 
L 1178 0 
L 603 0 
L 603 4863 
z
" transform="scale(0.015625)"/>
      <path id="DejaVuSans-20" transform="scale(0.015625)"/>
      <path id="DejaVuSans-44" d="M 1259 4147 
L 1259 519 
L 2022 519 
Q 2988 519 3436 956 
Q 3884 1394 3884 2338 
Q 3884 3275 3436 3711 
Q 2988 4147 2022 4147 
L 1259 4147 
z
M 628 4666 
L 1925 4666 
Q 3281 4666 3915 4102 
Q 4550 3538 4550 2338 
Q 4550 1131 3912 565 
Q 3275 0 1925 0 
L 628 0 
L 628 4666 
z
" transform="scale(0.015625)"/>
      <path id="DejaVuSans-65" d="M 3597 1894 
L 3597 1613 
L 953 1613 
Q 991 1019 1311 708 
Q 1631 397 2203 397 
Q 2534 397 2845 478 
Q 3156 559 3463 722 
L 3463 178 
Q 3153 47 2828 -22 
Q 2503 -91 2169 -91 
Q 1331 -91 842 396 
Q 353 884 353 1716 
Q 353 2575 817 3079 
Q 1281 3584 2069 3584 
Q 2775 3584 3186 3129 
Q 3597 2675 3597 1894 
z
M 3022 2063 
Q 3016 2534 2758 2815 
Q 2500 3097 2075 3097 
Q 1594 3097 1305 2825 
Q 1016 2553 972 2059 
L 3022 2063 
z
" transform="scale(0.015625)"/>
      <path id="DejaVuSans-6d" d="M 3328 2828 
Q 3544 3216 3844 3400 
Q 4144 3584 4550 3584 
Q 5097 3584 5394 3201 
Q 5691 2819 5691 2113 
L 5691 0 
L 5113 0 
L 5113 2094 
Q 5113 2597 4934 2840 
Q 4756 3084 4391 3084 
Q 3944 3084 3684 2787 
Q 3425 2491 3425 1978 
L 3425 0 
L 2847 0 
L 2847 2094 
Q 2847 2600 2669 2842 
Q 2491 3084 2119 3084 
Q 1678 3084 1418 2786 
Q 1159 2488 1159 1978 
L 1159 0 
L 581 0 
L 581 3500 
L 1159 3500 
L 1159 2956 
Q 1356 3278 1631 3431 
Q 1906 3584 2284 3584 
Q 2666 3584 2933 3390 
Q 3200 3197 3328 2828 
z
" transform="scale(0.015625)"/>
      <path id="DejaVuSans-72" d="M 2631 2963 
Q 2534 3019 2420 3045 
Q 2306 3072 2169 3072 
Q 1681 3072 1420 2755 
Q 1159 2438 1159 1844 
L 1159 0 
L 581 0 
L 581 3500 
L 1159 3500 
L 1159 2956 
Q 1341 3275 1631 3429 
Q 1922 3584 2338 3584 
Q 2397 3584 2469 3576 
Q 2541 3569 2628 3553 
L 2631 2963 
z
" transform="scale(0.015625)"/>
      <path id="DejaVuSans-74" d="M 1172 4494 
L 1172 3500 
L 2356 3500 
L 2356 3053 
L 1172 3053 
L 1172 1153 
Q 1172 725 1289 603 
Q 1406 481 1766 481 
L 2356 481 
L 2356 0 
L 1766 0 
Q 1100 0 847 248 
Q 594 497 594 1153 
L 594 3053 
L 172 3053 
L 172 3500 
L 594 3500 
L 594 4494 
L 1172 4494 
z
" transform="scale(0.015625)"/>
      <path id="DejaVuSans-73" d="M 2834 3397 
L 2834 2853 
Q 2591 2978 2328 3040 
Q 2066 3103 1784 3103 
Q 1356 3103 1142 2972 
Q 928 2841 928 2578 
Q 928 2378 1081 2264 
Q 1234 2150 1697 2047 
L 1894 2003 
Q 2506 1872 2764 1633 
Q 3022 1394 3022 966 
Q 3022 478 2636 193 
Q 2250 -91 1575 -91 
Q 1294 -91 989 -36 
Q 684 19 347 128 
L 347 722 
Q 666 556 975 473 
Q 1284 391 1588 391 
Q 1994 391 2212 530 
Q 2431 669 2431 922 
Q 2431 1156 2273 1281 
Q 2116 1406 1581 1522 
L 1381 1569 
Q 847 1681 609 1914 
Q 372 2147 372 2553 
Q 372 3047 722 3315 
Q 1072 3584 1716 3584 
Q 2034 3584 2315 3537 
Q 2597 3491 2834 3397 
z
" transform="scale(0.015625)"/>
     </defs>
     <use xlink:href="#DejaVuSans-53"/>
     <use xlink:href="#DejaVuSans-6f" x="63.476562"/>
     <use xlink:href="#DejaVuSans-63" x="124.658203"/>
     <use xlink:href="#DejaVuSans-69" x="179.638672"/>
     <use xlink:href="#DejaVuSans-61" x="207.421875"/>
     <use xlink:href="#DejaVuSans-6c" x="268.701172"/>
     <use xlink:href="#DejaVuSans-20" x="296.484375"/>
     <use xlink:href="#DejaVuSans-44" x="328.271484"/>
     <use xlink:href="#DejaVuSans-65" x="405.273438"/>
     <use xlink:href="#DejaVuSans-6d" x="466.796875"/>
     <use xlink:href="#DejaVuSans-6f" x="564.208984"/>
     <use xlink:href="#DejaVuSans-63" x="625.390625"/>
     <use xlink:href="#DejaVuSans-72" x="680.371094"/>
     <use xlink:href="#DejaVuSans-61" x="721.484375"/>
     <use xlink:href="#DejaVuSans-74" x="782.763672"/>
     <use xlink:href="#DejaVuSans-73" x="821.972656"/>
    </g>
   </g>
   <g id="text_2">
    <!-- 32.4% -->
    <g transform="translate(126.100269 324.508984)scale(0.1 -0.1)">
     <defs>
      <path id="DejaVuSans-33" d="M 2597 2516 
Q 3050 2419 3304 2112 
Q 3559 1806 3559 1356 
Q 3559 666 3084 287 
Q 2609 -91 1734 -91 
Q 1441 -91 1130 -33 
Q 819 25 488 141 
L 488 750 
Q 750 597 1062 519 
Q 1375 441 1716 441 
Q 2309 441 2620 675 
Q 2931 909 2931 1356 
Q 2931 1769 2642 2001 
Q 2353 2234 1838 2234 
L 1294 2234 
L 1294 2753 
L 1863 2753 
Q 2328 2753 2575 2939 
Q 2822 3125 2822 3475 
Q 2822 3834 2567 4026 
Q 2313 4219 1838 4219 
Q 1578 4219 1281 4162 
Q 984 4106 628 3988 
L 628 4550 
Q 988 4650 1302 4700 
Q 1616 4750 1894 4750 
Q 2613 4750 3031 4423 
Q 3450 4097 3450 3541 
Q 3450 3153 3228 2886 
Q 3006 2619 2597 2516 
z
" transform="scale(0.015625)"/>
      <path id="DejaVuSans-32" d="M 1228 531 
L 3431 531 
L 3431 0 
L 469 0 
L 469 531 
Q 828 903 1448 1529 
Q 2069 2156 2228 2338 
Q 2531 2678 2651 2914 
Q 2772 3150 2772 3378 
Q 2772 3750 2511 3984 
Q 2250 4219 1831 4219 
Q 1534 4219 1204 4116 
Q 875 4013 500 3803 
L 500 4441 
Q 881 4594 1212 4672 
Q 1544 4750 1819 4750 
Q 2544 4750 2975 4387 
Q 3406 4025 3406 3419 
Q 3406 3131 3298 2873 
Q 3191 2616 2906 2266 
Q 2828 2175 2409 1742 
Q 1991 1309 1228 531 
z
" transform="scale(0.015625)"/>
      <path id="DejaVuSans-2e" d="M 684 794 
L 1344 794 
L 1344 0 
L 684 0 
L 684 794 
z
" transform="scale(0.015625)"/>
      <path id="DejaVuSans-34" d="M 2419 4116 
L 825 1625 
L 2419 1625 
L 2419 4116 
z
M 2253 4666 
L 3047 4666 
L 3047 1625 
L 3713 1625 
L 3713 1100 
L 3047 1100 
L 3047 0 
L 2419 0 
L 2419 1100 
L 313 1100 
L 313 1709 
L 2253 4666 
z
" transform="scale(0.015625)"/>
      <path id="DejaVuSans-25" d="M 4653 2053 
Q 4381 2053 4226 1822 
Q 4072 1591 4072 1178 
Q 4072 772 4226 539 
Q 4381 306 4653 306 
Q 4919 306 5073 539 
Q 5228 772 5228 1178 
Q 5228 1588 5073 1820 
Q 4919 2053 4653 2053 
z
M 4653 2450 
Q 5147 2450 5437 2106 
Q 5728 1763 5728 1178 
Q 5728 594 5436 251 
Q 5144 -91 4653 -91 
Q 4153 -91 3862 251 
Q 3572 594 3572 1178 
Q 3572 1766 3864 2108 
Q 4156 2450 4653 2450 
z
M 1428 4353 
Q 1159 4353 1004 4120 
Q 850 3888 850 3481 
Q 850 3069 1003 2837 
Q 1156 2606 1428 2606 
Q 1700 2606 1854 2837 
Q 2009 3069 2009 3481 
Q 2009 3884 1853 4118 
Q 1697 4353 1428 4353 
z
M 4250 4750 
L 4750 4750 
L 1831 -91 
L 1331 -91 
L 4250 4750 
z
M 1428 4750 
Q 1922 4750 2215 4408 
Q 2509 4066 2509 3481 
Q 2509 2891 2217 2550 
Q 1925 2209 1428 2209 
Q 931 2209 642 2551 
Q 353 2894 353 3481 
Q 353 4063 643 4406 
Q 934 4750 1428 4750 
z
" transform="scale(0.015625)"/>
     </defs>
     <use xlink:href="#DejaVuSans-33"/>
     <use xlink:href="#DejaVuSans-32" x="63.623047"/>
     <use xlink:href="#DejaVuSans-2e" x="127.246094"/>
     <use xlink:href="#DejaVuSans-34" x="159.033203"/>
     <use xlink:href="#DejaVuSans-25" x="222.65625"/>
    </g>
   </g>
   <g id="text_3">
    <!-- Left Party -->
    <g transform="translate(50.248579 443.757719)scale(0.1 -0.1)">
     <defs>
      <path id="DejaVuSans-4c" d="M 628 4666 
L 1259 4666 
L 1259 531 
L 3531 531 
L 3531 0 
L 628 0 
L 628 4666 
z
" transform="scale(0.015625)"/>
      <path id="DejaVuSans-66" d="M 2375 4863 
L 2375 4384 
L 1825 4384 
Q 1516 4384 1395 4259 
Q 1275 4134 1275 3809 
L 1275 3500 
L 2222 3500 
L 2222 3053 
L 1275 3053 
L 1275 0 
L 697 0 
L 697 3053 
L 147 3053 
L 147 3500 
L 697 3500 
L 697 3744 
Q 697 4328 969 4595 
Q 1241 4863 1831 4863 
L 2375 4863 
z
" transform="scale(0.015625)"/>
      <path id="DejaVuSans-50" d="M 1259 4147 
L 1259 2394 
L 2053 2394 
Q 2494 2394 2734 2622 
Q 2975 2850 2975 3272 
Q 2975 3691 2734 3919 
Q 2494 4147 2053 4147 
L 1259 4147 
z
M 628 4666 
L 2053 4666 
Q 2838 4666 3239 4311 
Q 3641 3956 3641 3272 
Q 3641 2581 3239 2228 
Q 2838 1875 2053 1875 
L 1259 1875 
L 1259 0 
L 628 0 
L 628 4666 
z
" transform="scale(0.015625)"/>
      <path id="DejaVuSans-79" d="M 2059 -325 
Q 1816 -950 1584 -1140 
Q 1353 -1331 966 -1331 
L 506 -1331 
L 506 -850 
L 844 -850 
Q 1081 -850 1212 -737 
Q 1344 -625 1503 -206 
L 1606 56 
L 191 3500 
L 800 3500 
L 1894 763 
L 2988 3500 
L 3597 3500 
L 2059 -325 
z
" transform="scale(0.015625)"/>
     </defs>
     <use xlink:href="#DejaVuSans-4c"/>
     <use xlink:href="#DejaVuSans-65" x="53.962891"/>
     <use xlink:href="#DejaVuSans-66" x="115.486328"/>
     <use xlink:href="#DejaVuSans-74" x="148.941406"/>
     <use xlink:href="#DejaVuSans-20" x="188.150391"/>
     <use xlink:href="#DejaVuSans-50" x="219.9375"/>
     <use xlink:href="#DejaVuSans-61" x="275.740234"/>
     <use xlink:href="#DejaVuSans-72" x="337.019531"/>
     <use xlink:href="#DejaVuSans-74" x="378.132812"/>
     <use xlink:href="#DejaVuSans-79" x="417.341797"/>
    </g>
   </g>
   <g id="text_4">
    <!-- 6.0% -->
    <g transform="translate(133.365976 406.94029)scale(0.1 -0.1)">
     <defs>
      <path id="DejaVuSans-36" d="M 2113 2584 
Q 1688 2584 1439 2293 
Q 1191 2003 1191 1497 
Q 1191 994 1439 701 
Q 1688 409 2113 409 
Q 2538 409 2786 701 
Q 3034 994 3034 1497 
Q 3034 2003 2786 2293 
Q 2538 2584 2113 2584 
z
M 3366 4563 
L 3366 3988 
Q 3128 4100 2886 4159 
Q 2644 4219 2406 4219 
Q 1781 4219 1451 3797 
Q 1122 3375 1075 2522 
Q 1259 2794 1537 2939 
Q 1816 3084 2150 3084 
Q 2853 3084 3261 2657 
Q 3669 2231 3669 1497 
Q 3669 778 3244 343 
Q 2819 -91 2113 -91 
Q 1303 -91 875 529 
Q 447 1150 447 2328 
Q 447 3434 972 4092 
Q 1497 4750 2381 4750 
Q 2619 4750 2861 4703 
Q 3103 4656 3366 4563 
z
" transform="scale(0.015625)"/>
      <path id="DejaVuSans-30" d="M 2034 4250 
Q 1547 4250 1301 3770 
Q 1056 3291 1056 2328 
Q 1056 1369 1301 889 
Q 1547 409 2034 409 
Q 2525 409 2770 889 
Q 3016 1369 3016 2328 
Q 3016 3291 2770 3770 
Q 2525 4250 2034 4250 
z
M 2034 4750 
Q 2819 4750 3233 4129 
Q 3647 3509 3647 2328 
Q 3647 1150 3233 529 
Q 2819 -91 2034 -91 
Q 1250 -91 836 529 
Q 422 1150 422 2328 
Q 422 3509 836 4129 
Q 1250 4750 2034 4750 
z
" transform="scale(0.015625)"/>
     </defs>
     <use xlink:href="#DejaVuSans-36"/>
     <use xlink:href="#DejaVuSans-2e" x="63.623047"/>
     <use xlink:href="#DejaVuSans-30" x="95.410156"/>
     <use xlink:href="#DejaVuSans-25" x="159.033203"/>
    </g>
   </g>
   <g id="text_5">
    <!-- Green Party -->
    <g transform="translate(80.331225 479.548973)scale(0.1 -0.1)">
     <defs>
      <path id="DejaVuSans-47" d="M 3809 666 
L 3809 1919 
L 2778 1919 
L 2778 2438 
L 4434 2438 
L 4434 434 
Q 4069 175 3628 42 
Q 3188 -91 2688 -91 
Q 1594 -91 976 548 
Q 359 1188 359 2328 
Q 359 3472 976 4111 
Q 1594 4750 2688 4750 
Q 3144 4750 3555 4637 
Q 3966 4525 4313 4306 
L 4313 3634 
Q 3963 3931 3569 4081 
Q 3175 4231 2741 4231 
Q 1884 4231 1454 3753 
Q 1025 3275 1025 2328 
Q 1025 1384 1454 906 
Q 1884 428 2741 428 
Q 3075 428 3337 486 
Q 3600 544 3809 666 
z
" transform="scale(0.015625)"/>
      <path id="DejaVuSans-6e" d="M 3513 2113 
L 3513 0 
L 2938 0 
L 2938 2094 
Q 2938 2591 2744 2837 
Q 2550 3084 2163 3084 
Q 1697 3084 1428 2787 
Q 1159 2491 1159 1978 
L 1159 0 
L 581 0 
L 581 3500 
L 1159 3500 
L 1159 2956 
Q 1366 3272 1645 3428 
Q 1925 3584 2291 3584 
Q 2894 3584 3203 3211 
Q 3513 2838 3513 2113 
z
" transform="scale(0.015625)"/>
     </defs>
     <use xlink:href="#DejaVuSans-47"/>
     <use xlink:href="#DejaVuSans-72" x="77.490234"/>
     <use xlink:href="#DejaVuSans-65" x="116.353516"/>
     <use xlink:href="#DejaVuSans-65" x="177.876953"/>
     <use xlink:href="#DejaVuSans-6e" x="239.400391"/>
     <use xlink:href="#DejaVuSans-20" x="302.779297"/>
     <use xlink:href="#DejaVuSans-50" x="334.566406"/>
     <use xlink:href="#DejaVuSans-61" x="390.369141"/>
     <use xlink:href="#DejaVuSans-72" x="451.648438"/>
     <use xlink:href="#DejaVuSans-74" x="492.761719"/>
     <use xlink:href="#DejaVuSans-79" x="531.970703"/>
    </g>
   </g>
   <g id="text_6">
    <!-- 7.2% -->
    <g transform="translate(156.026964 426.462792)scale(0.1 -0.1)">
     <defs>
      <path id="DejaVuSans-37" d="M 525 4666 
L 3525 4666 
L 3525 4397 
L 1831 0 
L 1172 0 
L 2766 4134 
L 525 4134 
L 525 4666 
z
" transform="scale(0.015625)"/>
     </defs>
     <use xlink:href="#DejaVuSans-37"/>
     <use xlink:href="#DejaVuSans-2e" x="63.623047"/>
     <use xlink:href="#DejaVuSans-32" x="95.410156"/>
     <use xlink:href="#DejaVuSans-25" x="159.033203"/>
    </g>
   </g>
   <g id="text_7">
    <!-- Centre Party -->
    <g transform="translate(130.807337 495.702443)scale(0.1 -0.1)">
     <defs>
      <path id="DejaVuSans-43" d="M 4122 4306 
L 4122 3641 
Q 3803 3938 3442 4084 
Q 3081 4231 2675 4231 
Q 1875 4231 1450 3742 
Q 1025 3253 1025 2328 
Q 1025 1406 1450 917 
Q 1875 428 2675 428 
Q 3081 428 3442 575 
Q 3803 722 4122 1019 
L 4122 359 
Q 3791 134 3420 21 
Q 3050 -91 2638 -91 
Q 1578 -91 968 557 
Q 359 1206 359 2328 
Q 359 3453 968 4101 
Q 1578 4750 2638 4750 
Q 3056 4750 3426 4639 
Q 3797 4528 4122 4306 
z
" transform="scale(0.015625)"/>
     </defs>
     <use xlink:href="#DejaVuSans-43"/>
     <use xlink:href="#DejaVuSans-65" x="69.824219"/>
     <use xlink:href="#DejaVuSans-6e" x="131.347656"/>
     <use xlink:href="#DejaVuSans-74" x="194.726562"/>
     <use xlink:href="#DejaVuSans-72" x="233.935547"/>
     <use xlink:href="#DejaVuSans-65" x="272.798828"/>
     <use xlink:href="#DejaVuSans-20" x="334.322266"/>
     <use xlink:href="#DejaVuSans-50" x="366.109375"/>
     <use xlink:href="#DejaVuSans-61" x="421.912109"/>
     <use xlink:href="#DejaVuSans-72" x="483.191406"/>
     <use xlink:href="#DejaVuSans-74" x="524.304688"/>
     <use xlink:href="#DejaVuSans-79" x="563.513672"/>
    </g>
   </g>
   <g id="text_8">
    <!-- 6.3% -->
    <g transform="translate(185.280128 435.273776)scale(0.1 -0.1)">
     <use xlink:href="#DejaVuSans-36"/>
     <use xlink:href="#DejaVuSans-2e" x="63.623047"/>
     <use xlink:href="#DejaVuSans-33" x="95.410156"/>
     <use xlink:href="#DejaVuSans-25" x="159.033203"/>
    </g>
   </g>
   <g id="text_9">
    <!-- Liberal Party -->
    <g transform="translate(241.761848 490.644435)scale(0.1 -0.1)">
     <defs>
      <path id="DejaVuSans-62" d="M 3116 1747 
Q 3116 2381 2855 2742 
Q 2594 3103 2138 3103 
Q 1681 3103 1420 2742 
Q 1159 2381 1159 1747 
Q 1159 1113 1420 752 
Q 1681 391 2138 391 
Q 2594 391 2855 752 
Q 3116 1113 3116 1747 
z
M 1159 2969 
Q 1341 3281 1617 3432 
Q 1894 3584 2278 3584 
Q 2916 3584 3314 3078 
Q 3713 2572 3713 1747 
Q 3713 922 3314 415 
Q 2916 -91 2278 -91 
Q 1894 -91 1617 61 
Q 1341 213 1159 525 
L 1159 0 
L 581 0 
L 581 4863 
L 1159 4863 
L 1159 2969 
z
" transform="scale(0.015625)"/>
     </defs>
     <use xlink:href="#DejaVuSans-4c"/>
     <use xlink:href="#DejaVuSans-69" x="55.712891"/>
     <use xlink:href="#DejaVuSans-62" x="83.496094"/>
     <use xlink:href="#DejaVuSans-65" x="146.972656"/>
     <use xlink:href="#DejaVuSans-72" x="208.496094"/>
     <use xlink:href="#DejaVuSans-61" x="249.609375"/>
     <use xlink:href="#DejaVuSans-6c" x="310.888672"/>
     <use xlink:href="#DejaVuSans-20" x="338.671875"/>
     <use xlink:href="#DejaVuSans-50" x="370.458984"/>
     <use xlink:href="#DejaVuSans-61" x="426.261719"/>
     <use xlink:href="#DejaVuSans-72" x="487.541016"/>
     <use xlink:href="#DejaVuSans-74" x="528.654297"/>
     <use xlink:href="#DejaVuSans-79" x="567.863281"/>
    </g>
   </g>
   <g id="text_10">
    <!-- 5.4% -->
    <g transform="translate(211.835998 432.514862)scale(0.1 -0.1)">
     <defs>
      <path id="DejaVuSans-35" d="M 691 4666 
L 3169 4666 
L 3169 4134 
L 1269 4134 
L 1269 2991 
Q 1406 3038 1543 3061 
Q 1681 3084 1819 3084 
Q 2600 3084 3056 2656 
Q 3513 2228 3513 1497 
Q 3513 744 3044 326 
Q 2575 -91 1722 -91 
Q 1428 -91 1123 -41 
Q 819 9 494 109 
L 494 744 
Q 775 591 1075 516 
Q 1375 441 1709 441 
Q 2250 441 2565 725 
Q 2881 1009 2881 1497 
Q 2881 1984 2565 2268 
Q 2250 2553 1709 2553 
Q 1456 2553 1204 2497 
Q 953 2441 691 2322 
L 691 4666 
z
" transform="scale(0.015625)"/>
     </defs>
     <use xlink:href="#DejaVuSans-35"/>
     <use xlink:href="#DejaVuSans-2e" x="63.623047"/>
     <use xlink:href="#DejaVuSans-34" x="95.410156"/>
     <use xlink:href="#DejaVuSans-25" x="159.033203"/>
    </g>
   </g>
   <g id="text_11">
    <!-- Moderate Party -->
    <g transform="translate(328.907624 409.192086)scale(0.1 -0.1)">
     <defs>
      <path id="DejaVuSans-4d" d="M 628 4666 
L 1569 4666 
L 2759 1491 
L 3956 4666 
L 4897 4666 
L 4897 0 
L 4281 0 
L 4281 4097 
L 3078 897 
L 2444 897 
L 1241 4097 
L 1241 0 
L 628 0 
L 628 4666 
z
" transform="scale(0.015625)"/>
      <path id="DejaVuSans-64" d="M 2906 2969 
L 2906 4863 
L 3481 4863 
L 3481 0 
L 2906 0 
L 2906 525 
Q 2725 213 2448 61 
Q 2172 -91 1784 -91 
Q 1150 -91 751 415 
Q 353 922 353 1747 
Q 353 2572 751 3078 
Q 1150 3584 1784 3584 
Q 2172 3584 2448 3432 
Q 2725 3281 2906 2969 
z
M 947 1747 
Q 947 1113 1208 752 
Q 1469 391 1925 391 
Q 2381 391 2643 752 
Q 2906 1113 2906 1747 
Q 2906 2381 2643 2742 
Q 2381 3103 1925 3103 
Q 1469 3103 1208 2742 
Q 947 2381 947 1747 
z
" transform="scale(0.015625)"/>
     </defs>
     <use xlink:href="#DejaVuSans-4d"/>
     <use xlink:href="#DejaVuSans-6f" x="86.279297"/>
     <use xlink:href="#DejaVuSans-64" x="147.460938"/>
     <use xlink:href="#DejaVuSans-65" x="210.9375"/>
     <use xlink:href="#DejaVuSans-72" x="272.460938"/>
     <use xlink:href="#DejaVuSans-61" x="313.574219"/>
     <use xlink:href="#DejaVuSans-74" x="374.853516"/>
     <use xlink:href="#DejaVuSans-65" x="414.0625"/>
     <use xlink:href="#DejaVuSans-20" x="475.585938"/>
     <use xlink:href="#DejaVuSans-50" x="507.373047"/>
     <use xlink:href="#DejaVuSans-61" x="563.175781"/>
     <use xlink:href="#DejaVuSans-72" x="624.455078"/>
     <use xlink:href="#DejaVuSans-74" x="665.568359"/>
     <use xlink:href="#DejaVuSans-79" x="704.777344"/>
    </g>
   </g>
   <g id="text_12">
    <!-- 24.1% -->
    <g transform="translate(256.188807 388.086308)scale(0.1 -0.1)">
     <defs>
      <path id="DejaVuSans-31" d="M 794 531 
L 1825 531 
L 1825 4091 
L 703 3866 
L 703 4441 
L 1819 4666 
L 2450 4666 
L 2450 531 
L 3481 531 
L 3481 0 
L 794 0 
L 794 531 
z
" transform="scale(0.015625)"/>
     </defs>
     <use xlink:href="#DejaVuSans-32"/>
     <use xlink:href="#DejaVuSans-34" x="63.623047"/>
     <use xlink:href="#DejaVuSans-2e" x="127.246094"/>
     <use xlink:href="#DejaVuSans-31" x="159.033203"/>
     <use xlink:href="#DejaVuSans-25" x="222.65625"/>
    </g>
   </g>
   <g id="text_13">
    <!-- Christian Democrats -->
    <g transform="translate(317.954945 293.65781)scale(0.1 -0.1)">
     <defs>
      <path id="DejaVuSans-68" d="M 3513 2113 
L 3513 0 
L 2938 0 
L 2938 2094 
Q 2938 2591 2744 2837 
Q 2550 3084 2163 3084 
Q 1697 3084 1428 2787 
Q 1159 2491 1159 1978 
L 1159 0 
L 581 0 
L 581 4863 
L 1159 4863 
L 1159 2956 
Q 1366 3272 1645 3428 
Q 1925 3584 2291 3584 
Q 2894 3584 3203 3211 
Q 3513 2838 3513 2113 
z
" transform="scale(0.015625)"/>
     </defs>
     <use xlink:href="#DejaVuSans-43"/>
     <use xlink:href="#DejaVuSans-68" x="69.824219"/>
     <use xlink:href="#DejaVuSans-72" x="133.203125"/>
     <use xlink:href="#DejaVuSans-69" x="174.316406"/>
     <use xlink:href="#DejaVuSans-73" x="202.099609"/>
     <use xlink:href="#DejaVuSans-74" x="254.199219"/>
     <use xlink:href="#DejaVuSans-69" x="293.408203"/>
     <use xlink:href="#DejaVuSans-61" x="321.191406"/>
     <use xlink:href="#DejaVuSans-6e" x="382.470703"/>
     <use xlink:href="#DejaVuSans-20" x="445.849609"/>
     <use xlink:href="#DejaVuSans-44" x="477.636719"/>
     <use xlink:href="#DejaVuSans-65" x="554.638672"/>
     <use xlink:href="#DejaVuSans-6d" x="616.162109"/>
     <use xlink:href="#DejaVuSans-6f" x="713.574219"/>
     <use xlink:href="#DejaVuSans-63" x="774.755859"/>
     <use xlink:href="#DejaVuSans-72" x="829.736328"/>
     <use xlink:href="#DejaVuSans-61" x="870.849609"/>
     <use xlink:href="#DejaVuSans-74" x="932.128906"/>
     <use xlink:href="#DejaVuSans-73" x="971.337891"/>
    </g>
   </g>
   <g id="text_14">
    <!-- 4.6% -->
    <g transform="translate(253.395869 325.067612)scale(0.1 -0.1)">
     <use xlink:href="#DejaVuSans-34"/>
     <use xlink:href="#DejaVuSans-2e" x="63.623047"/>
     <use xlink:href="#DejaVuSans-36" x="95.410156"/>
     <use xlink:href="#DejaVuSans-25" x="159.033203"/>
    </g>
   </g>
   <g id="text_15">
    <!-- Sweden Democrats -->
    <g transform="translate(260.812868 242.144718)scale(0.1 -0.1)">
     <defs>
      <path id="DejaVuSans-77" d="M 269 3500 
L 844 3500 
L 1563 769 
L 2278 3500 
L 2956 3500 
L 3675 769 
L 4391 3500 
L 4966 3500 
L 4050 0 
L 3372 0 
L 2619 2869 
L 1863 0 
L 1184 0 
L 269 3500 
z
" transform="scale(0.015625)"/>
     </defs>
     <use xlink:href="#DejaVuSans-53"/>
     <use xlink:href="#DejaVuSans-77" x="63.476562"/>
     <use xlink:href="#DejaVuSans-65" x="145.263672"/>
     <use xlink:href="#DejaVuSans-64" x="206.787109"/>
     <use xlink:href="#DejaVuSans-65" x="270.263672"/>
     <use xlink:href="#DejaVuSans-6e" x="331.787109"/>
     <use xlink:href="#DejaVuSans-20" x="395.166016"/>
     <use xlink:href="#DejaVuSans-44" x="426.953125"/>
     <use xlink:href="#DejaVuSans-65" x="503.955078"/>
     <use xlink:href="#DejaVuSans-6d" x="565.478516"/>
     <use xlink:href="#DejaVuSans-6f" x="662.890625"/>
     <use xlink:href="#DejaVuSans-63" x="724.072266"/>
     <use xlink:href="#DejaVuSans-72" x="779.052734"/>
     <use xlink:href="#DejaVuSans-61" x="820.166016"/>
     <use xlink:href="#DejaVuSans-74" x="881.445312"/>
     <use xlink:href="#DejaVuSans-73" x="920.654297"/>
    </g>
   </g>
   <g id="text_16">
    <!-- 14.0% -->
    <g transform="translate(219.046213 296.969562)scale(0.1 -0.1)">
     <use xlink:href="#DejaVuSans-31"/>
     <use xlink:href="#DejaVuSans-34" x="63.623047"/>
     <use xlink:href="#DejaVuSans-2e" x="127.246094"/>
     <use xlink:href="#DejaVuSans-30" x="159.033203"/>
     <use xlink:href="#DejaVuSans-25" x="222.65625"/>
    </g>
   </g>
   <g id="text_17">
    <!-- 2014 Swedish election -->
    <g transform="translate(136.132008 202.431195)scale(0.12 -0.12)">
     <use xlink:href="#DejaVuSans-32"/>
     <use xlink:href="#DejaVuSans-30" x="63.623047"/>
     <use xlink:href="#DejaVuSans-31" x="127.246094"/>
     <use xlink:href="#DejaVuSans-34" x="190.869141"/>
     <use xlink:href="#DejaVuSans-20" x="254.492188"/>
     <use xlink:href="#DejaVuSans-53" x="286.279297"/>
     <use xlink:href="#DejaVuSans-77" x="349.755859"/>
     <use xlink:href="#DejaVuSans-65" x="431.542969"/>
     <use xlink:href="#DejaVuSans-64" x="493.066406"/>
     <use xlink:href="#DejaVuSans-69" x="556.542969"/>
     <use xlink:href="#DejaVuSans-73" x="584.326172"/>
     <use xlink:href="#DejaVuSans-68" x="636.425781"/>
     <use xlink:href="#DejaVuSans-20" x="699.804688"/>
     <use xlink:href="#DejaVuSans-65" x="731.591797"/>
     <use xlink:href="#DejaVuSans-6c" x="793.115234"/>
     <use xlink:href="#DejaVuSans-65" x="820.898438"/>
     <use xlink:href="#DejaVuSans-63" x="882.421875"/>
     <use xlink:href="#DejaVuSans-74" x="937.402344"/>
     <use xlink:href="#DejaVuSans-69" x="976.611328"/>
     <use xlink:href="#DejaVuSans-6f" x="1004.394531"/>
     <use xlink:href="#DejaVuSans-6e" x="1065.576172"/>
    </g>
   </g>
  </g>
  <g id="axes_2">
   <g id="patch_10">
    <path d="M 620.846731 238.744956 
C 602.578615 238.744956 584.544489 242.873329 568.095692 250.820727 
C 551.646896 258.768125 537.204801 270.330956 525.85159 284.642791 
C 514.498378 298.954627 506.524887 315.648835 502.528589 333.474481 
C 498.532292 351.300127 498.615562 369.800566 502.77216 387.589516 
L 620.846731 360 
L 620.846731 238.744956 
z
" style="fill: #e8112d"/>
   </g>
   <g id="patch_11">
    <path d="M 502.77216 387.589516 
C 505.09318 397.522762 508.65843 407.123534 513.38334 416.164094 
C 518.10825 425.204654 523.955163 433.61295 530.785386 441.18953 
L 620.846731 360 
L 502.77216 387.589516 
z
" style="fill: #da291c"/>
   </g>
   <g id="patch_12">
    <path d="M 530.785386 441.18953 
C 534.684902 445.515158 538.890995 449.554232 543.370992 453.275375 
C 547.850989 456.996519 552.593259 460.390073 557.560965 463.429675 
L 620.846731 360 
L 530.785386 441.18953 
z
" style="fill: #83cf39"/>
   </g>
   <g id="patch_13">
    <path d="M 557.560965 463.429675 
C 567.197321 469.325895 577.610579 473.846588 588.498255 476.860437 
C 599.385931 479.874287 610.641573 481.351824 621.938229 481.250131 
L 620.846731 360 
L 557.560965 463.429675 
z
" style="fill: #009933"/>
   </g>
   <g id="patch_14">
    <path d="M 621.938229 481.250131 
C 629.219519 481.184585 636.480128 480.463289 643.631999 479.094993 
C 650.783869 477.726696 657.797972 475.716952 664.58924 473.090135 
L 620.846731 360 
L 621.938229 481.250131 
z
" style="fill: #006ab3"/>
   </g>
   <g id="patch_15">
    <path d="M 664.58924 473.090135 
C 688.53734 463.82717 708.935208 447.19243 722.826138 425.597151 
C 736.717068 404.001872 743.395811 378.542453 741.894273 352.909284 
L 620.846731 360 
L 664.58924 473.090135 
z
" style="fill: #52bdec"/>
   </g>
   <g id="patch_16">
    <path d="M 741.894273 352.909284 
C 741.425815 344.912116 740.165993 336.981018 738.133285 329.232325 
C 736.100578 321.483631 733.304972 313.955414 729.787474 306.758098 
L 620.846731 360 
L 741.894273 352.909284 
z
" style="fill: #000077"/>
   </g>
   <g id="patch_17">
    <path d="M 729.787474 306.758098 
C 719.818793 286.360712 704.319046 269.167262 685.060965 257.144189 
C 665.802884 245.121116 643.549761 238.744954 620.846722 238.744956 
L 620.846731 360 
L 729.787474 306.758098 
z
" style="fill: #dddd00"/>
   </g>
   <g id="matplotlib.axis_3"/>
   <g id="matplotlib.axis_4"/>
   <g id="text_18">
    <!-- Social Democrats -->
    <g transform="translate(428.944263 279.866446)scale(0.1 -0.1)">
     <use xlink:href="#DejaVuSans-53"/>
     <use xlink:href="#DejaVuSans-6f" x="63.476562"/>
     <use xlink:href="#DejaVuSans-63" x="124.658203"/>
     <use xlink:href="#DejaVuSans-69" x="179.638672"/>
     <use xlink:href="#DejaVuSans-61" x="207.421875"/>
     <use xlink:href="#DejaVuSans-6c" x="268.701172"/>
     <use xlink:href="#DejaVuSans-20" x="296.484375"/>
     <use xlink:href="#DejaVuSans-44" x="328.271484"/>
     <use xlink:href="#DejaVuSans-65" x="405.273438"/>
     <use xlink:href="#DejaVuSans-6d" x="466.796875"/>
     <use xlink:href="#DejaVuSans-6f" x="564.208984"/>
     <use xlink:href="#DejaVuSans-63" x="625.390625"/>
     <use xlink:href="#DejaVuSans-72" x="680.371094"/>
     <use xlink:href="#DejaVuSans-61" x="721.484375"/>
     <use xlink:href="#DejaVuSans-74" x="782.763672"/>
     <use xlink:href="#DejaVuSans-73" x="821.972656"/>
    </g>
   </g>
   <g id="text_19">
    <!-- 28.7% -->
    <g transform="translate(547.966052 317.54505)scale(0.1 -0.1)">
     <defs>
      <path id="DejaVuSans-38" d="M 2034 2216 
Q 1584 2216 1326 1975 
Q 1069 1734 1069 1313 
Q 1069 891 1326 650 
Q 1584 409 2034 409 
Q 2484 409 2743 651 
Q 3003 894 3003 1313 
Q 3003 1734 2745 1975 
Q 2488 2216 2034 2216 
z
M 1403 2484 
Q 997 2584 770 2862 
Q 544 3141 544 3541 
Q 544 4100 942 4425 
Q 1341 4750 2034 4750 
Q 2731 4750 3128 4425 
Q 3525 4100 3525 3541 
Q 3525 3141 3298 2862 
Q 3072 2584 2669 2484 
Q 3125 2378 3379 2068 
Q 3634 1759 3634 1313 
Q 3634 634 3220 271 
Q 2806 -91 2034 -91 
Q 1263 -91 848 271 
Q 434 634 434 1313 
Q 434 1759 690 2068 
Q 947 2378 1403 2484 
z
M 1172 3481 
Q 1172 3119 1398 2916 
Q 1625 2713 2034 2713 
Q 2441 2713 2670 2916 
Q 2900 3119 2900 3481 
Q 2900 3844 2670 4047 
Q 2441 4250 2034 4250 
Q 1625 4250 1398 4047 
Q 1172 3844 1172 3481 
z
" transform="scale(0.015625)"/>
     </defs>
     <use xlink:href="#DejaVuSans-32"/>
     <use xlink:href="#DejaVuSans-38" x="63.623047"/>
     <use xlink:href="#DejaVuSans-2e" x="127.246094"/>
     <use xlink:href="#DejaVuSans-37" x="159.033203"/>
     <use xlink:href="#DejaVuSans-25" x="222.65625"/>
    </g>
   </g>
   <g id="text_20">
    <!-- Left Party -->
    <g transform="translate(454.985439 424.539878)scale(0.1 -0.1)">
     <use xlink:href="#DejaVuSans-4c"/>
     <use xlink:href="#DejaVuSans-65" x="53.962891"/>
     <use xlink:href="#DejaVuSans-66" x="115.486328"/>
     <use xlink:href="#DejaVuSans-74" x="148.941406"/>
     <use xlink:href="#DejaVuSans-20" x="188.150391"/>
     <use xlink:href="#DejaVuSans-50" x="219.9375"/>
     <use xlink:href="#DejaVuSans-61" x="275.740234"/>
     <use xlink:href="#DejaVuSans-72" x="337.019531"/>
     <use xlink:href="#DejaVuSans-74" x="378.132812"/>
     <use xlink:href="#DejaVuSans-79" x="417.341797"/>
    </g>
   </g>
   <g id="text_21">
    <!-- 8.0% -->
    <g transform="translate(543.666353 396.457831)scale(0.1 -0.1)">
     <use xlink:href="#DejaVuSans-38"/>
     <use xlink:href="#DejaVuSans-2e" x="63.623047"/>
     <use xlink:href="#DejaVuSans-30" x="95.410156"/>
     <use xlink:href="#DejaVuSans-25" x="159.033203"/>
    </g>
   </g>
   <g id="text_22">
    <!-- Green Party -->
    <g transform="translate(476.509356 465.362288)scale(0.1 -0.1)">
     <use xlink:href="#DejaVuSans-47"/>
     <use xlink:href="#DejaVuSans-72" x="77.490234"/>
     <use xlink:href="#DejaVuSans-65" x="116.353516"/>
     <use xlink:href="#DejaVuSans-65" x="177.876953"/>
     <use xlink:href="#DejaVuSans-6e" x="239.400391"/>
     <use xlink:href="#DejaVuSans-20" x="302.779297"/>
     <use xlink:href="#DejaVuSans-50" x="334.566406"/>
     <use xlink:href="#DejaVuSans-61" x="390.369141"/>
     <use xlink:href="#DejaVuSans-72" x="451.648438"/>
     <use xlink:href="#DejaVuSans-74" x="492.761719"/>
     <use xlink:href="#DejaVuSans-79" x="531.970703"/>
    </g>
   </g>
   <g id="text_23">
    <!-- 4.6% -->
    <g transform="translate(561.658944 418.7246)scale(0.1 -0.1)">
     <use xlink:href="#DejaVuSans-34"/>
     <use xlink:href="#DejaVuSans-2e" x="63.623047"/>
     <use xlink:href="#DejaVuSans-36" x="95.410156"/>
     <use xlink:href="#DejaVuSans-25" x="159.033203"/>
    </g>
   </g>
   <g id="text_24">
    <!-- Centre Party -->
    <g transform="translate(522.994657 491.305856)scale(0.1 -0.1)">
     <use xlink:href="#DejaVuSans-43"/>
     <use xlink:href="#DejaVuSans-65" x="69.824219"/>
     <use xlink:href="#DejaVuSans-6e" x="131.347656"/>
     <use xlink:href="#DejaVuSans-74" x="194.726562"/>
     <use xlink:href="#DejaVuSans-72" x="233.935547"/>
     <use xlink:href="#DejaVuSans-65" x="272.798828"/>
     <use xlink:href="#DejaVuSans-20" x="334.322266"/>
     <use xlink:href="#DejaVuSans-50" x="366.109375"/>
     <use xlink:href="#DejaVuSans-61" x="421.912109"/>
     <use xlink:href="#DejaVuSans-72" x="483.191406"/>
     <use xlink:href="#DejaVuSans-74" x="524.304688"/>
     <use xlink:href="#DejaVuSans-79" x="563.513672"/>
    </g>
   </g>
   <g id="text_25">
    <!-- 8.9% -->
    <g transform="translate(588.735301 432.875637)scale(0.1 -0.1)">
     <defs>
      <path id="DejaVuSans-39" d="M 703 97 
L 703 672 
Q 941 559 1184 500 
Q 1428 441 1663 441 
Q 2288 441 2617 861 
Q 2947 1281 2994 2138 
Q 2813 1869 2534 1725 
Q 2256 1581 1919 1581 
Q 1219 1581 811 2004 
Q 403 2428 403 3163 
Q 403 3881 828 4315 
Q 1253 4750 1959 4750 
Q 2769 4750 3195 4129 
Q 3622 3509 3622 2328 
Q 3622 1225 3098 567 
Q 2575 -91 1691 -91 
Q 1453 -91 1209 -44 
Q 966 3 703 97 
z
M 1959 2075 
Q 2384 2075 2632 2365 
Q 2881 2656 2881 3163 
Q 2881 3666 2632 3958 
Q 2384 4250 1959 4250 
Q 1534 4250 1286 3958 
Q 1038 3666 1038 3163 
Q 1038 2656 1286 2365 
Q 1534 2075 1959 2075 
z
" transform="scale(0.015625)"/>
     </defs>
     <use xlink:href="#DejaVuSans-38"/>
     <use xlink:href="#DejaVuSans-2e" x="63.623047"/>
     <use xlink:href="#DejaVuSans-39" x="95.410156"/>
     <use xlink:href="#DejaVuSans-25" x="159.033203"/>
    </g>
   </g>
   <g id="text_26">
    <!-- Liberal Party -->
    <g transform="translate(645.910525 493.763867)scale(0.1 -0.1)">
     <use xlink:href="#DejaVuSans-4c"/>
     <use xlink:href="#DejaVuSans-69" x="55.712891"/>
     <use xlink:href="#DejaVuSans-62" x="83.496094"/>
     <use xlink:href="#DejaVuSans-65" x="146.972656"/>
     <use xlink:href="#DejaVuSans-72" x="208.496094"/>
     <use xlink:href="#DejaVuSans-61" x="249.609375"/>
     <use xlink:href="#DejaVuSans-6c" x="310.888672"/>
     <use xlink:href="#DejaVuSans-20" x="338.671875"/>
     <use xlink:href="#DejaVuSans-50" x="370.458984"/>
     <use xlink:href="#DejaVuSans-61" x="426.261719"/>
     <use xlink:href="#DejaVuSans-72" x="487.541016"/>
     <use xlink:href="#DejaVuSans-74" x="528.654297"/>
     <use xlink:href="#DejaVuSans-79" x="567.863281"/>
    </g>
   </g>
   <g id="text_27">
    <!-- 5.7% -->
    <g transform="translate(621.815548 434.216371)scale(0.1 -0.1)">
     <use xlink:href="#DejaVuSans-35"/>
     <use xlink:href="#DejaVuSans-2e" x="63.623047"/>
     <use xlink:href="#DejaVuSans-37" x="95.410156"/>
     <use xlink:href="#DejaVuSans-25" x="159.033203"/>
    </g>
   </g>
   <g id="text_28">
    <!-- Moderate Party -->
    <g transform="translate(733.024079 434.916241)scale(0.1 -0.1)">
     <use xlink:href="#DejaVuSans-4d"/>
     <use xlink:href="#DejaVuSans-6f" x="86.279297"/>
     <use xlink:href="#DejaVuSans-64" x="147.460938"/>
     <use xlink:href="#DejaVuSans-65" x="210.9375"/>
     <use xlink:href="#DejaVuSans-72" x="272.460938"/>
     <use xlink:href="#DejaVuSans-61" x="313.574219"/>
     <use xlink:href="#DejaVuSans-74" x="374.853516"/>
     <use xlink:href="#DejaVuSans-65" x="414.0625"/>
     <use xlink:href="#DejaVuSans-20" x="475.585938"/>
     <use xlink:href="#DejaVuSans-50" x="507.373047"/>
     <use xlink:href="#DejaVuSans-61" x="563.175781"/>
     <use xlink:href="#DejaVuSans-72" x="624.455078"/>
     <use xlink:href="#DejaVuSans-74" x="665.568359"/>
     <use xlink:href="#DejaVuSans-79" x="704.777344"/>
    </g>
   </g>
   <g id="text_29">
    <!-- 20.1% -->
    <g transform="translate(666.150781 402.117666)scale(0.1 -0.1)">
     <use xlink:href="#DejaVuSans-32"/>
     <use xlink:href="#DejaVuSans-30" x="63.623047"/>
     <use xlink:href="#DejaVuSans-2e" x="127.246094"/>
     <use xlink:href="#DejaVuSans-31" x="159.033203"/>
     <use xlink:href="#DejaVuSans-25" x="222.65625"/>
    </g>
   </g>
   <g id="text_30">
    <!-- Christian Democrats -->
    <g transform="translate(749.861941 328.914932)scale(0.1 -0.1)">
     <use xlink:href="#DejaVuSans-43"/>
     <use xlink:href="#DejaVuSans-68" x="69.824219"/>
     <use xlink:href="#DejaVuSans-72" x="133.203125"/>
     <use xlink:href="#DejaVuSans-69" x="174.316406"/>
     <use xlink:href="#DejaVuSans-73" x="202.099609"/>
     <use xlink:href="#DejaVuSans-74" x="254.199219"/>
     <use xlink:href="#DejaVuSans-69" x="293.408203"/>
     <use xlink:href="#DejaVuSans-61" x="321.191406"/>
     <use xlink:href="#DejaVuSans-6e" x="382.470703"/>
     <use xlink:href="#DejaVuSans-20" x="445.849609"/>
     <use xlink:href="#DejaVuSans-44" x="477.636719"/>
     <use xlink:href="#DejaVuSans-65" x="554.638672"/>
     <use xlink:href="#DejaVuSans-6d" x="616.162109"/>
     <use xlink:href="#DejaVuSans-6f" x="713.574219"/>
     <use xlink:href="#DejaVuSans-63" x="774.755859"/>
     <use xlink:href="#DejaVuSans-72" x="829.736328"/>
     <use xlink:href="#DejaVuSans-61" x="870.849609"/>
     <use xlink:href="#DejaVuSans-74" x="932.128906"/>
     <use xlink:href="#DejaVuSans-73" x="971.337891"/>
    </g>
   </g>
   <g id="text_31">
    <!-- 6.3% -->
    <g transform="translate(678.51632 344.29877)scale(0.1 -0.1)">
     <use xlink:href="#DejaVuSans-36"/>
     <use xlink:href="#DejaVuSans-2e" x="63.623047"/>
     <use xlink:href="#DejaVuSans-33" x="95.410156"/>
     <use xlink:href="#DejaVuSans-25" x="159.033203"/>
    </g>
   </g>
   <g id="text_32">
    <!-- Sweden Democrats -->
    <g transform="translate(691.482388 249.617983)scale(0.1 -0.1)">
     <use xlink:href="#DejaVuSans-53"/>
     <use xlink:href="#DejaVuSans-77" x="63.476562"/>
     <use xlink:href="#DejaVuSans-65" x="145.263672"/>
     <use xlink:href="#DejaVuSans-64" x="206.787109"/>
     <use xlink:href="#DejaVuSans-65" x="270.263672"/>
     <use xlink:href="#DejaVuSans-6e" x="331.787109"/>
     <use xlink:href="#DejaVuSans-20" x="395.166016"/>
     <use xlink:href="#DejaVuSans-44" x="426.953125"/>
     <use xlink:href="#DejaVuSans-65" x="503.955078"/>
     <use xlink:href="#DejaVuSans-6d" x="565.478516"/>
     <use xlink:href="#DejaVuSans-6f" x="662.890625"/>
     <use xlink:href="#DejaVuSans-63" x="724.072266"/>
     <use xlink:href="#DejaVuSans-72" x="779.052734"/>
     <use xlink:href="#DejaVuSans-61" x="820.166016"/>
     <use xlink:href="#DejaVuSans-74" x="881.445312"/>
     <use xlink:href="#DejaVuSans-73" x="920.654297"/>
    </g>
   </g>
   <g id="text_33">
    <!-- 17.8% -->
    <g transform="translate(643.491677 301.045888)scale(0.1 -0.1)">
     <use xlink:href="#DejaVuSans-31"/>
     <use xlink:href="#DejaVuSans-37" x="63.623047"/>
     <use xlink:href="#DejaVuSans-2e" x="127.246094"/>
     <use xlink:href="#DejaVuSans-38" x="159.033203"/>
     <use xlink:href="#DejaVuSans-25" x="222.65625"/>
    </g>
   </g>
   <g id="text_34">
    <!-- 2018 Swedish election -->
    <g transform="translate(553.108606 202.431195)scale(0.12 -0.12)">
     <use xlink:href="#DejaVuSans-32"/>
     <use xlink:href="#DejaVuSans-30" x="63.623047"/>
     <use xlink:href="#DejaVuSans-31" x="127.246094"/>
     <use xlink:href="#DejaVuSans-38" x="190.869141"/>
     <use xlink:href="#DejaVuSans-20" x="254.492188"/>
     <use xlink:href="#DejaVuSans-53" x="286.279297"/>
     <use xlink:href="#DejaVuSans-77" x="349.755859"/>
     <use xlink:href="#DejaVuSans-65" x="431.542969"/>
     <use xlink:href="#DejaVuSans-64" x="493.066406"/>
     <use xlink:href="#DejaVuSans-69" x="556.542969"/>
     <use xlink:href="#DejaVuSans-73" x="584.326172"/>
     <use xlink:href="#DejaVuSans-68" x="636.425781"/>
     <use xlink:href="#DejaVuSans-20" x="699.804688"/>
     <use xlink:href="#DejaVuSans-65" x="731.591797"/>
     <use xlink:href="#DejaVuSans-6c" x="793.115234"/>
     <use xlink:href="#DejaVuSans-65" x="820.898438"/>
     <use xlink:href="#DejaVuSans-63" x="882.421875"/>
     <use xlink:href="#DejaVuSans-74" x="937.402344"/>
     <use xlink:href="#DejaVuSans-69" x="976.611328"/>
     <use xlink:href="#DejaVuSans-6f" x="1004.394531"/>
     <use xlink:href="#DejaVuSans-6e" x="1065.576172"/>
    </g>
   </g>
  </g>
  <g id="axes_3">
   <g id="patch_18">
    <path d="M 1057.764077 238.744956 
C 1038.205409 238.744956 1018.934043 243.477231 1001.599993 252.536604 
C 984.265944 261.595977 969.37846 274.716298 958.212208 290.774203 
C 947.045956 306.832108 939.928983 325.355841 937.470645 344.759399 
C 935.012307 364.162958 937.284827 383.876294 944.09363 402.211553 
L 1057.764077 360 
L 1057.764077 238.744956 
z
" style="fill: #e8112d"/>
   </g>
   <g id="patch_19">
    <path d="M 944.09363 402.211553 
C 947.136388 410.405321 951.0562 418.246124 955.784676 425.597161 
C 960.513152 432.948197 966.02263 439.766464 972.216985 445.933002 
L 1057.764077 360 
L 944.09363 402.211553 
z
" style="fill: #da291c"/>
   </g>
   <g id="patch_20">
    <path d="M 972.216985 445.933002 
C 976.86078 450.555942 981.871677 454.794861 987.200431 458.608101 
C 992.529184 462.42134 998.158281 465.796366 1004.032398 468.700011 
L 1057.764077 360 
L 972.216985 445.933002 
z
" style="fill: #83cf39"/>
   </g>
   <g id="patch_21">
    <path d="M 1004.032398 468.700011 
C 1011.86788 472.573181 1020.099231 475.587808 1028.582837 477.691295 
C 1037.066442 479.794782 1045.752674 480.974824 1054.48998 481.210833 
L 1057.764077 360 
L 1004.032398 468.700011 
z
" style="fill: #009933"/>
   </g>
   <g id="patch_22">
    <path d="M 1054.48998 481.210833 
C 1060.311711 481.368087 1066.137215 481.105712 1071.921239 480.425747 
C 1077.705262 479.745781 1083.43279 478.64999 1089.059331 477.146886 
L 1057.764077 360 
L 1054.48998 481.210833 
z
" style="fill: #006ab3"/>
   </g>
   <g id="patch_23">
    <path d="M 1089.059331 477.146886 
C 1113.146784 470.712033 1134.673272 457.001929 1150.689802 437.894771 
C 1166.706333 418.787613 1176.446521 395.197671 1178.576023 370.356617 
L 1057.764077 360 
L 1089.059331 477.146886 
z
" style="fill: #52bdec"/>
   </g>
   <g id="patch_24">
    <path d="M 1178.576023 370.356617 
C 1179.166821 363.464842 1179.16682 356.535134 1178.576021 349.643359 
C 1177.985221 342.751584 1176.805787 335.922984 1175.05063 329.232316 
L 1057.764077 360 
L 1178.576023 370.356617 
z
" style="fill: #000077"/>
   </g>
   <g id="patch_25">
    <path d="M 1175.05063 329.232316 
C 1168.251212 303.312904 1153.0479 280.364412 1131.831772 263.99603 
C 1110.615644 247.627647 1084.560478 238.744952 1057.76406 238.744956 
L 1057.764077 360 
L 1175.05063 329.232316 
z
" style="fill: #dddd00"/>
   </g>
   <g id="matplotlib.axis_5"/>
   <g id="matplotlib.axis_6"/>
   <g id="text_35">
    <!-- Social Democrats -->
    <g transform="translate(860.849208 286.610998)scale(0.1 -0.1)">
     <use xlink:href="#DejaVuSans-53"/>
     <use xlink:href="#DejaVuSans-6f" x="63.476562"/>
     <use xlink:href="#DejaVuSans-63" x="124.658203"/>
     <use xlink:href="#DejaVuSans-69" x="179.638672"/>
     <use xlink:href="#DejaVuSans-61" x="207.421875"/>
     <use xlink:href="#DejaVuSans-6c" x="268.701172"/>
     <use xlink:href="#DejaVuSans-20" x="296.484375"/>
     <use xlink:href="#DejaVuSans-44" x="328.271484"/>
     <use xlink:href="#DejaVuSans-65" x="405.273438"/>
     <use xlink:href="#DejaVuSans-6d" x="466.796875"/>
     <use xlink:href="#DejaVuSans-6f" x="564.208984"/>
     <use xlink:href="#DejaVuSans-63" x="625.390625"/>
     <use xlink:href="#DejaVuSans-72" x="680.371094"/>
     <use xlink:href="#DejaVuSans-61" x="721.484375"/>
     <use xlink:href="#DejaVuSans-74" x="782.763672"/>
     <use xlink:href="#DejaVuSans-73" x="821.972656"/>
    </g>
   </g>
   <g id="text_36">
    <!-- 30.7% -->
    <g transform="translate(982.149362 321.223897)scale(0.1 -0.1)">
     <use xlink:href="#DejaVuSans-33"/>
     <use xlink:href="#DejaVuSans-30" x="63.623047"/>
     <use xlink:href="#DejaVuSans-2e" x="127.246094"/>
     <use xlink:href="#DejaVuSans-37" x="159.033203"/>
     <use xlink:href="#DejaVuSans-25" x="222.65625"/>
    </g>
   </g>
   <g id="text_37">
    <!-- Left Party -->
    <g transform="translate(897.935173 434.916252)scale(0.1 -0.1)">
     <use xlink:href="#DejaVuSans-4c"/>
     <use xlink:href="#DejaVuSans-65" x="53.962891"/>
     <use xlink:href="#DejaVuSans-66" x="115.486328"/>
     <use xlink:href="#DejaVuSans-74" x="148.941406"/>
     <use xlink:href="#DejaVuSans-20" x="188.150391"/>
     <use xlink:href="#DejaVuSans-50" x="219.9375"/>
     <use xlink:href="#DejaVuSans-61" x="275.740234"/>
     <use xlink:href="#DejaVuSans-72" x="337.019531"/>
     <use xlink:href="#DejaVuSans-74" x="378.132812"/>
     <use xlink:href="#DejaVuSans-79" x="417.341797"/>
    </g>
   </g>
   <g id="text_38">
    <!-- 6.9% -->
    <g transform="translate(983.874093 402.117671)scale(0.1 -0.1)">
     <use xlink:href="#DejaVuSans-36"/>
     <use xlink:href="#DejaVuSans-2e" x="63.623047"/>
     <use xlink:href="#DejaVuSans-39" x="95.410156"/>
     <use xlink:href="#DejaVuSans-25" x="159.033203"/>
    </g>
   </g>
   <g id="text_39">
    <!-- Green Party -->
    <g transform="translate(921.030004 471.228286)scale(0.1 -0.1)">
     <use xlink:href="#DejaVuSans-47"/>
     <use xlink:href="#DejaVuSans-72" x="77.490234"/>
     <use xlink:href="#DejaVuSans-65" x="116.353516"/>
     <use xlink:href="#DejaVuSans-65" x="177.876953"/>
     <use xlink:href="#DejaVuSans-6e" x="239.400391"/>
     <use xlink:href="#DejaVuSans-20" x="302.779297"/>
     <use xlink:href="#DejaVuSans-50" x="334.566406"/>
     <use xlink:href="#DejaVuSans-61" x="390.369141"/>
     <use xlink:href="#DejaVuSans-72" x="451.648438"/>
     <use xlink:href="#DejaVuSans-74" x="492.761719"/>
     <use xlink:href="#DejaVuSans-79" x="531.970703"/>
    </g>
   </g>
   <g id="text_40">
    <!-- 5.2% -->
    <g transform="translate(1002.723546 421.924235)scale(0.1 -0.1)">
     <use xlink:href="#DejaVuSans-35"/>
     <use xlink:href="#DejaVuSans-2e" x="63.623047"/>
     <use xlink:href="#DejaVuSans-32" x="95.410156"/>
     <use xlink:href="#DejaVuSans-25" x="159.033203"/>
    </g>
   </g>
   <g id="text_41">
    <!-- Centre Party -->
    <g transform="translate(963.395963 492.2198)scale(0.1 -0.1)">
     <use xlink:href="#DejaVuSans-43"/>
     <use xlink:href="#DejaVuSans-65" x="69.824219"/>
     <use xlink:href="#DejaVuSans-6e" x="131.347656"/>
     <use xlink:href="#DejaVuSans-74" x="194.726562"/>
     <use xlink:href="#DejaVuSans-72" x="233.935547"/>
     <use xlink:href="#DejaVuSans-65" x="272.798828"/>
     <use xlink:href="#DejaVuSans-20" x="334.322266"/>
     <use xlink:href="#DejaVuSans-50" x="366.109375"/>
     <use xlink:href="#DejaVuSans-61" x="421.912109"/>
     <use xlink:href="#DejaVuSans-72" x="483.191406"/>
     <use xlink:href="#DejaVuSans-74" x="524.304688"/>
     <use xlink:href="#DejaVuSans-79" x="563.513672"/>
    </g>
   </g>
   <g id="text_42">
    <!-- 6.9% -->
    <g transform="translate(1027.552989 433.374152)scale(0.1 -0.1)">
     <use xlink:href="#DejaVuSans-36"/>
     <use xlink:href="#DejaVuSans-2e" x="63.623047"/>
     <use xlink:href="#DejaVuSans-39" x="95.410156"/>
     <use xlink:href="#DejaVuSans-25" x="159.033203"/>
    </g>
   </g>
   <g id="text_43">
    <!-- Liberal Party -->
    <g transform="translate(1073.336955 495.227697)scale(0.1 -0.1)">
     <use xlink:href="#DejaVuSans-4c"/>
     <use xlink:href="#DejaVuSans-69" x="55.712891"/>
     <use xlink:href="#DejaVuSans-62" x="83.496094"/>
     <use xlink:href="#DejaVuSans-65" x="146.972656"/>
     <use xlink:href="#DejaVuSans-72" x="208.496094"/>
     <use xlink:href="#DejaVuSans-61" x="249.609375"/>
     <use xlink:href="#DejaVuSans-6c" x="310.888672"/>
     <use xlink:href="#DejaVuSans-20" x="338.671875"/>
     <use xlink:href="#DejaVuSans-50" x="370.458984"/>
     <use xlink:href="#DejaVuSans-61" x="426.261719"/>
     <use xlink:href="#DejaVuSans-72" x="487.541016"/>
     <use xlink:href="#DejaVuSans-74" x="528.654297"/>
     <use xlink:href="#DejaVuSans-79" x="567.863281"/>
    </g>
   </g>
   <g id="text_44">
    <!-- 4.6% -->
    <g transform="translate(1053.55603 435.014823)scale(0.1 -0.1)">
     <use xlink:href="#DejaVuSans-34"/>
     <use xlink:href="#DejaVuSans-2e" x="63.623047"/>
     <use xlink:href="#DejaVuSans-36" x="95.410156"/>
     <use xlink:href="#DejaVuSans-25" x="159.033203"/>
    </g>
   </g>
   <g id="text_45">
    <!-- Moderate Party -->
    <g transform="translate(1159.982375 448.443623)scale(0.1 -0.1)">
     <use xlink:href="#DejaVuSans-4d"/>
     <use xlink:href="#DejaVuSans-6f" x="86.279297"/>
     <use xlink:href="#DejaVuSans-64" x="147.460938"/>
     <use xlink:href="#DejaVuSans-65" x="210.9375"/>
     <use xlink:href="#DejaVuSans-72" x="272.460938"/>
     <use xlink:href="#DejaVuSans-61" x="313.574219"/>
     <use xlink:href="#DejaVuSans-74" x="374.853516"/>
     <use xlink:href="#DejaVuSans-65" x="414.0625"/>
     <use xlink:href="#DejaVuSans-20" x="475.585938"/>
     <use xlink:href="#DejaVuSans-50" x="507.373047"/>
     <use xlink:href="#DejaVuSans-61" x="563.175781"/>
     <use xlink:href="#DejaVuSans-72" x="624.455078"/>
     <use xlink:href="#DejaVuSans-74" x="665.568359"/>
     <use xlink:href="#DejaVuSans-79" x="704.777344"/>
    </g>
   </g>
   <g id="text_46">
    <!-- 19.5% -->
    <g transform="translate(1097.635919 409.496238)scale(0.1 -0.1)">
     <use xlink:href="#DejaVuSans-31"/>
     <use xlink:href="#DejaVuSans-39" x="63.623047"/>
     <use xlink:href="#DejaVuSans-2e" x="127.246094"/>
     <use xlink:href="#DejaVuSans-35" x="159.033203"/>
     <use xlink:href="#DejaVuSans-25" x="222.65625"/>
    </g>
   </g>
   <g id="text_47">
    <!-- Christian Democrats -->
    <g transform="translate(1190.657215 351.36707)scale(0.1 -0.1)">
     <use xlink:href="#DejaVuSans-43"/>
     <use xlink:href="#DejaVuSans-68" x="69.824219"/>
     <use xlink:href="#DejaVuSans-72" x="133.203125"/>
     <use xlink:href="#DejaVuSans-69" x="174.316406"/>
     <use xlink:href="#DejaVuSans-73" x="202.099609"/>
     <use xlink:href="#DejaVuSans-74" x="254.199219"/>
     <use xlink:href="#DejaVuSans-69" x="293.408203"/>
     <use xlink:href="#DejaVuSans-61" x="321.191406"/>
     <use xlink:href="#DejaVuSans-6e" x="382.470703"/>
     <use xlink:href="#DejaVuSans-20" x="445.849609"/>
     <use xlink:href="#DejaVuSans-44" x="477.636719"/>
     <use xlink:href="#DejaVuSans-65" x="554.638672"/>
     <use xlink:href="#DejaVuSans-6d" x="616.162109"/>
     <use xlink:href="#DejaVuSans-6f" x="713.574219"/>
     <use xlink:href="#DejaVuSans-63" x="774.755859"/>
     <use xlink:href="#DejaVuSans-72" x="829.736328"/>
     <use xlink:href="#DejaVuSans-61" x="870.849609"/>
     <use xlink:href="#DejaVuSans-74" x="932.128906"/>
     <use xlink:href="#DejaVuSans-73" x="971.337891"/>
    </g>
   </g>
   <g id="text_48">
    <!-- 5.4% -->
    <g transform="translate(1117.5489 356.54539)scale(0.1 -0.1)">
     <use xlink:href="#DejaVuSans-35"/>
     <use xlink:href="#DejaVuSans-2e" x="63.623047"/>
     <use xlink:href="#DejaVuSans-34" x="95.410156"/>
     <use xlink:href="#DejaVuSans-25" x="159.033203"/>
    </g>
   </g>
   <g id="text_49">
    <!-- Sweden Democrats -->
    <g transform="translate(1139.238542 257.155008)scale(0.1 -0.1)">
     <use xlink:href="#DejaVuSans-53"/>
     <use xlink:href="#DejaVuSans-77" x="63.476562"/>
     <use xlink:href="#DejaVuSans-65" x="145.263672"/>
     <use xlink:href="#DejaVuSans-64" x="206.787109"/>
     <use xlink:href="#DejaVuSans-65" x="270.263672"/>
     <use xlink:href="#DejaVuSans-6e" x="331.787109"/>
     <use xlink:href="#DejaVuSans-20" x="395.166016"/>
     <use xlink:href="#DejaVuSans-44" x="426.953125"/>
     <use xlink:href="#DejaVuSans-65" x="503.955078"/>
     <use xlink:href="#DejaVuSans-6d" x="565.478516"/>
     <use xlink:href="#DejaVuSans-6f" x="662.890625"/>
     <use xlink:href="#DejaVuSans-63" x="724.072266"/>
     <use xlink:href="#DejaVuSans-72" x="779.052734"/>
     <use xlink:href="#DejaVuSans-61" x="820.166016"/>
     <use xlink:href="#DejaVuSans-74" x="881.445312"/>
     <use xlink:href="#DejaVuSans-73" x="920.654297"/>
    </g>
   </g>
   <g id="text_50">
    <!-- 20.9% -->
    <g transform="translate(1086.3211 305.156993)scale(0.1 -0.1)">
     <use xlink:href="#DejaVuSans-32"/>
     <use xlink:href="#DejaVuSans-30" x="63.623047"/>
     <use xlink:href="#DejaVuSans-2e" x="127.246094"/>
     <use xlink:href="#DejaVuSans-39" x="159.033203"/>
     <use xlink:href="#DejaVuSans-25" x="222.65625"/>
    </g>
   </g>
   <g id="text_51">
    <!-- 2022 Swedish election -->
    <g transform="translate(990.025952 202.431195)scale(0.12 -0.12)">
     <use xlink:href="#DejaVuSans-32"/>
     <use xlink:href="#DejaVuSans-30" x="63.623047"/>
     <use xlink:href="#DejaVuSans-32" x="127.246094"/>
     <use xlink:href="#DejaVuSans-32" x="190.869141"/>
     <use xlink:href="#DejaVuSans-20" x="254.492188"/>
     <use xlink:href="#DejaVuSans-53" x="286.279297"/>
     <use xlink:href="#DejaVuSans-77" x="349.755859"/>
     <use xlink:href="#DejaVuSans-65" x="431.542969"/>
     <use xlink:href="#DejaVuSans-64" x="493.066406"/>
     <use xlink:href="#DejaVuSans-69" x="556.542969"/>
     <use xlink:href="#DejaVuSans-73" x="584.326172"/>
     <use xlink:href="#DejaVuSans-68" x="636.425781"/>
     <use xlink:href="#DejaVuSans-20" x="699.804688"/>
     <use xlink:href="#DejaVuSans-65" x="731.591797"/>
     <use xlink:href="#DejaVuSans-6c" x="793.115234"/>
     <use xlink:href="#DejaVuSans-65" x="820.898438"/>
     <use xlink:href="#DejaVuSans-63" x="882.421875"/>
     <use xlink:href="#DejaVuSans-74" x="937.402344"/>
     <use xlink:href="#DejaVuSans-69" x="976.611328"/>
     <use xlink:href="#DejaVuSans-6f" x="1004.394531"/>
     <use xlink:href="#DejaVuSans-6e" x="1065.576172"/>
    </g>
   </g>
  </g>
 </g>
</svg>
