<?xml version="1.0" encoding="utf-8" standalone="no"?>
<!DOCTYPE svg PUBLIC "-//W3C//DTD SVG 1.1//EN"
  "http://www.w3.org/Graphics/SVG/1.1/DTD/svg11.dtd">
<svg xmlns:xlink="http://www.w3.org/1999/xlink" width="457.563167pt" height="263.922121pt" viewBox="0 0 457.563167 263.922121" xmlns="http://www.w3.org/2000/svg" version="1.1">
 <metadata>
  <rdf:RDF xmlns:dc="http://purl.org/dc/elements/1.1/" xmlns:cc="http://creativecommons.org/ns#" xmlns:rdf="http://www.w3.org/1999/02/22-rdf-syntax-ns#">
   <cc:Work>
    <dc:type rdf:resource="http://purl.org/dc/dcmitype/StillImage"/>
    <dc:date>2022-12-13T01:53:36.082855</dc:date>
    <dc:format>image/svg+xml</dc:format>
    <dc:creator>
     <cc:Agent>
      <dc:title>Matplotlib v3.5.3, https://matplotlib.org/</dc:title>
     </cc:Agent>
    </dc:creator>
   </cc:Work>
  </rdf:RDF>
 </metadata>
 <defs>
  <style type="text/css">*{stroke-linejoin: round; stroke-linecap: butt}</style>
 </defs>
 <g id="figure_1">
  <g id="patch_1">
   <path d="M 0 263.922121 
L 457.563167 263.922121 
L 457.563167 0 
L 0 0 
L 0 263.922121 
z
" style="fill: none"/>
  </g>
  <g id="axes_1">
   <g id="patch_2">
    <path d="M 50.440688 234.005371 
L 441.040688 234.005371 
L 441.040688 26.105371 
L 50.440688 26.105371 
L 50.440688 234.005371 
z
" style="fill: none"/>
   </g>
   <g id="matplotlib.axis_1">
    <g id="xtick_1">
     <g id="line2d_1">
      <path d="M 68.195233 234.005371 
L 68.195233 26.105371 
" clip-path="url(#pdef838d04c)" style="fill: none; stroke: #e5e5e5; stroke-width: 0.8"/>
     </g>
     <g id="text_1">
      <!-- Jan 2009 -->
      <g style="fill: #4d4d4d" transform="translate(48.815983 254.891996)scale(0.088 -0.088)">
       <defs>
        <path id="DejaVuSans-4a" d="M 628 4666 
L 1259 4666 
L 1259 325 
Q 1259 -519 939 -900 
Q 619 -1281 -91 -1281 
L -331 -1281 
L -331 -750 
L -134 -750 
Q 284 -750 456 -515 
Q 628 -281 628 325 
L 628 4666 
z
" transform="scale(0.015625)"/>
        <path id="DejaVuSans-61" d="M 2194 1759 
Q 1497 1759 1228 1600 
Q 959 1441 959 1056 
Q 959 750 1161 570 
Q 1363 391 1709 391 
Q 2188 391 2477 730 
Q 2766 1069 2766 1631 
L 2766 1759 
L 2194 1759 
z
M 3341 1997 
L 3341 0 
L 2766 0 
L 2766 531 
Q 2569 213 2275 61 
Q 1981 -91 1556 -91 
Q 1019 -91 701 211 
Q 384 513 384 1019 
Q 384 1609 779 1909 
Q 1175 2209 1959 2209 
L 2766 2209 
L 2766 2266 
Q 2766 2663 2505 2880 
Q 2244 3097 1772 3097 
Q 1472 3097 1187 3025 
Q 903 2953 641 2809 
L 641 3341 
Q 956 3463 1253 3523 
Q 1550 3584 1831 3584 
Q 2591 3584 2966 3190 
Q 3341 2797 3341 1997 
z
" transform="scale(0.015625)"/>
        <path id="DejaVuSans-6e" d="M 3513 2113 
L 3513 0 
L 2938 0 
L 2938 2094 
Q 2938 2591 2744 2837 
Q 2550 3084 2163 3084 
Q 1697 3084 1428 2787 
Q 1159 2491 1159 1978 
L 1159 0 
L 581 0 
L 581 3500 
L 1159 3500 
L 1159 2956 
Q 1366 3272 1645 3428 
Q 1925 3584 2291 3584 
Q 2894 3584 3203 3211 
Q 3513 2838 3513 2113 
z
" transform="scale(0.015625)"/>
        <path id="DejaVuSans-20" transform="scale(0.015625)"/>
        <path id="DejaVuSans-32" d="M 1228 531 
L 3431 531 
L 3431 0 
L 469 0 
L 469 531 
Q 828 903 1448 1529 
Q 2069 2156 2228 2338 
Q 2531 2678 2651 2914 
Q 2772 3150 2772 3378 
Q 2772 3750 2511 3984 
Q 2250 4219 1831 4219 
Q 1534 4219 1204 4116 
Q 875 4013 500 3803 
L 500 4441 
Q 881 4594 1212 4672 
Q 1544 4750 1819 4750 
Q 2544 4750 2975 4387 
Q 3406 4025 3406 3419 
Q 3406 3131 3298 2873 
Q 3191 2616 2906 2266 
Q 2828 2175 2409 1742 
Q 1991 1309 1228 531 
z
" transform="scale(0.015625)"/>
        <path id="DejaVuSans-30" d="M 2034 4250 
Q 1547 4250 1301 3770 
Q 1056 3291 1056 2328 
Q 1056 1369 1301 889 
Q 1547 409 2034 409 
Q 2525 409 2770 889 
Q 3016 1369 3016 2328 
Q 3016 3291 2770 3770 
Q 2525 4250 2034 4250 
z
M 2034 4750 
Q 2819 4750 3233 4129 
Q 3647 3509 3647 2328 
Q 3647 1150 3233 529 
Q 2819 -91 2034 -91 
Q 1250 -91 836 529 
Q 422 1150 422 2328 
Q 422 3509 836 4129 
Q 1250 4750 2034 4750 
z
" transform="scale(0.015625)"/>
        <path id="DejaVuSans-39" d="M 703 97 
L 703 672 
Q 941 559 1184 500 
Q 1428 441 1663 441 
Q 2288 441 2617 861 
Q 2947 1281 2994 2138 
Q 2813 1869 2534 1725 
Q 2256 1581 1919 1581 
Q 1219 1581 811 2004 
Q 403 2428 403 3163 
Q 403 3881 828 4315 
Q 1253 4750 1959 4750 
Q 2769 4750 3195 4129 
Q 3622 3509 3622 2328 
Q 3622 1225 3098 567 
Q 2575 -91 1691 -91 
Q 1453 -91 1209 -44 
Q 966 3 703 97 
z
M 1959 2075 
Q 2384 2075 2632 2365 
Q 2881 2656 2881 3163 
Q 2881 3666 2632 3958 
Q 2384 4250 1959 4250 
Q 1534 4250 1286 3958 
Q 1038 3666 1038 3163 
Q 1038 2656 1286 2365 
Q 1534 2075 1959 2075 
z
" transform="scale(0.015625)"/>
       </defs>
       <use xlink:href="#DejaVuSans-4a"/>
       <use xlink:href="#DejaVuSans-61" x="29.492188"/>
       <use xlink:href="#DejaVuSans-6e" x="90.771484"/>
       <use xlink:href="#DejaVuSans-20" x="154.150391"/>
       <use xlink:href="#DejaVuSans-32" x="185.9375"/>
       <use xlink:href="#DejaVuSans-30" x="249.560547"/>
       <use xlink:href="#DejaVuSans-30" x="313.183594"/>
       <use xlink:href="#DejaVuSans-39" x="376.806641"/>
      </g>
     </g>
    </g>
    <g id="xtick_2">
     <g id="line2d_2">
      <path d="M 113.140306 234.005371 
L 113.140306 26.105371 
" clip-path="url(#pdef838d04c)" style="fill: none; stroke: #e5e5e5; stroke-width: 0.8"/>
     </g>
     <g id="text_2">
      <!-- Jul 2009 -->
      <g style="fill: #4d4d4d" transform="translate(95.235056 254.891996)scale(0.088 -0.088)">
       <defs>
        <path id="DejaVuSans-75" d="M 544 1381 
L 544 3500 
L 1119 3500 
L 1119 1403 
Q 1119 906 1312 657 
Q 1506 409 1894 409 
Q 2359 409 2629 706 
Q 2900 1003 2900 1516 
L 2900 3500 
L 3475 3500 
L 3475 0 
L 2900 0 
L 2900 538 
Q 2691 219 2414 64 
Q 2138 -91 1772 -91 
Q 1169 -91 856 284 
Q 544 659 544 1381 
z
M 1991 3584 
L 1991 3584 
z
" transform="scale(0.015625)"/>
        <path id="DejaVuSans-6c" d="M 603 4863 
L 1178 4863 
L 1178 0 
L 603 0 
L 603 4863 
z
" transform="scale(0.015625)"/>
       </defs>
       <use xlink:href="#DejaVuSans-4a"/>
       <use xlink:href="#DejaVuSans-75" x="29.492188"/>
       <use xlink:href="#DejaVuSans-6c" x="92.871094"/>
       <use xlink:href="#DejaVuSans-20" x="120.654297"/>
       <use xlink:href="#DejaVuSans-32" x="152.441406"/>
       <use xlink:href="#DejaVuSans-30" x="216.064453"/>
       <use xlink:href="#DejaVuSans-30" x="279.6875"/>
       <use xlink:href="#DejaVuSans-39" x="343.310547"/>
      </g>
     </g>
    </g>
    <g id="xtick_3">
     <g id="line2d_3">
      <path d="M 158.830325 234.005371 
L 158.830325 26.105371 
" clip-path="url(#pdef838d04c)" style="fill: none; stroke: #e5e5e5; stroke-width: 0.8"/>
     </g>
     <g id="text_3">
      <!-- Jan 2010 -->
      <g style="fill: #4d4d4d" transform="translate(139.451075 254.891996)scale(0.088 -0.088)">
       <defs>
        <path id="DejaVuSans-31" d="M 794 531 
L 1825 531 
L 1825 4091 
L 703 3866 
L 703 4441 
L 1819 4666 
L 2450 4666 
L 2450 531 
L 3481 531 
L 3481 0 
L 794 0 
L 794 531 
z
" transform="scale(0.015625)"/>
       </defs>
       <use xlink:href="#DejaVuSans-4a"/>
       <use xlink:href="#DejaVuSans-61" x="29.492188"/>
       <use xlink:href="#DejaVuSans-6e" x="90.771484"/>
       <use xlink:href="#DejaVuSans-20" x="154.150391"/>
       <use xlink:href="#DejaVuSans-32" x="185.9375"/>
       <use xlink:href="#DejaVuSans-30" x="249.560547"/>
       <use xlink:href="#DejaVuSans-31" x="313.183594"/>
       <use xlink:href="#DejaVuSans-30" x="376.806641"/>
      </g>
     </g>
    </g>
    <g id="xtick_4">
     <g id="line2d_4">
      <path d="M 203.775398 234.005371 
L 203.775398 26.105371 
" clip-path="url(#pdef838d04c)" style="fill: none; stroke: #e5e5e5; stroke-width: 0.8"/>
     </g>
     <g id="text_4">
      <!-- Jul 2010 -->
      <g style="fill: #4d4d4d" transform="translate(185.870148 254.891996)scale(0.088 -0.088)">
       <use xlink:href="#DejaVuSans-4a"/>
       <use xlink:href="#DejaVuSans-75" x="29.492188"/>
       <use xlink:href="#DejaVuSans-6c" x="92.871094"/>
       <use xlink:href="#DejaVuSans-20" x="120.654297"/>
       <use xlink:href="#DejaVuSans-32" x="152.441406"/>
       <use xlink:href="#DejaVuSans-30" x="216.064453"/>
       <use xlink:href="#DejaVuSans-31" x="279.6875"/>
       <use xlink:href="#DejaVuSans-30" x="343.310547"/>
      </g>
     </g>
    </g>
    <g id="xtick_5">
     <g id="line2d_5">
      <path d="M 249.465417 234.005371 
L 249.465417 26.105371 
" clip-path="url(#pdef838d04c)" style="fill: none; stroke: #e5e5e5; stroke-width: 0.8"/>
     </g>
     <g id="text_5">
      <!-- Jan 2011 -->
      <g style="fill: #4d4d4d" transform="translate(230.086167 254.891996)scale(0.088 -0.088)">
       <use xlink:href="#DejaVuSans-4a"/>
       <use xlink:href="#DejaVuSans-61" x="29.492188"/>
       <use xlink:href="#DejaVuSans-6e" x="90.771484"/>
       <use xlink:href="#DejaVuSans-20" x="154.150391"/>
       <use xlink:href="#DejaVuSans-32" x="185.9375"/>
       <use xlink:href="#DejaVuSans-30" x="249.560547"/>
       <use xlink:href="#DejaVuSans-31" x="313.183594"/>
       <use xlink:href="#DejaVuSans-31" x="376.806641"/>
      </g>
     </g>
    </g>
    <g id="xtick_6">
     <g id="line2d_6">
      <path d="M 294.41049 234.005371 
L 294.41049 26.105371 
" clip-path="url(#pdef838d04c)" style="fill: none; stroke: #e5e5e5; stroke-width: 0.8"/>
     </g>
     <g id="text_6">
      <!-- Jul 2011 -->
      <g style="fill: #4d4d4d" transform="translate(276.50524 254.891996)scale(0.088 -0.088)">
       <use xlink:href="#DejaVuSans-4a"/>
       <use xlink:href="#DejaVuSans-75" x="29.492188"/>
       <use xlink:href="#DejaVuSans-6c" x="92.871094"/>
       <use xlink:href="#DejaVuSans-20" x="120.654297"/>
       <use xlink:href="#DejaVuSans-32" x="152.441406"/>
       <use xlink:href="#DejaVuSans-30" x="216.064453"/>
       <use xlink:href="#DejaVuSans-31" x="279.6875"/>
       <use xlink:href="#DejaVuSans-31" x="343.310547"/>
      </g>
     </g>
    </g>
    <g id="xtick_7">
     <g id="line2d_7">
      <path d="M 340.100509 234.005371 
L 340.100509 26.105371 
" clip-path="url(#pdef838d04c)" style="fill: none; stroke: #e5e5e5; stroke-width: 0.8"/>
     </g>
     <g id="text_7">
      <!-- Jan 2012 -->
      <g style="fill: #4d4d4d" transform="translate(320.721259 254.891996)scale(0.088 -0.088)">
       <use xlink:href="#DejaVuSans-4a"/>
       <use xlink:href="#DejaVuSans-61" x="29.492188"/>
       <use xlink:href="#DejaVuSans-6e" x="90.771484"/>
       <use xlink:href="#DejaVuSans-20" x="154.150391"/>
       <use xlink:href="#DejaVuSans-32" x="185.9375"/>
       <use xlink:href="#DejaVuSans-30" x="249.560547"/>
       <use xlink:href="#DejaVuSans-31" x="313.183594"/>
       <use xlink:href="#DejaVuSans-32" x="376.806641"/>
      </g>
     </g>
    </g>
    <g id="xtick_8">
     <g id="line2d_8">
      <path d="M 385.293898 234.005371 
L 385.293898 26.105371 
" clip-path="url(#pdef838d04c)" style="fill: none; stroke: #e5e5e5; stroke-width: 0.8"/>
     </g>
     <g id="text_8">
      <!-- Jul 2012 -->
      <g style="fill: #4d4d4d" transform="translate(367.388648 254.891996)scale(0.088 -0.088)">
       <use xlink:href="#DejaVuSans-4a"/>
       <use xlink:href="#DejaVuSans-75" x="29.492188"/>
       <use xlink:href="#DejaVuSans-6c" x="92.871094"/>
       <use xlink:href="#DejaVuSans-20" x="120.654297"/>
       <use xlink:href="#DejaVuSans-32" x="152.441406"/>
       <use xlink:href="#DejaVuSans-30" x="216.064453"/>
       <use xlink:href="#DejaVuSans-31" x="279.6875"/>
       <use xlink:href="#DejaVuSans-32" x="343.310547"/>
      </g>
     </g>
    </g>
    <g id="xtick_9">
     <g id="line2d_9">
      <path d="M 430.983917 234.005371 
L 430.983917 26.105371 
" clip-path="url(#pdef838d04c)" style="fill: none; stroke: #e5e5e5; stroke-width: 0.8"/>
     </g>
     <g id="text_9">
      <!-- Jan 2013 -->
      <g style="fill: #4d4d4d" transform="translate(411.604667 254.891996)scale(0.088 -0.088)">
       <defs>
        <path id="DejaVuSans-33" d="M 2597 2516 
Q 3050 2419 3304 2112 
Q 3559 1806 3559 1356 
Q 3559 666 3084 287 
Q 2609 -91 1734 -91 
Q 1441 -91 1130 -33 
Q 819 25 488 141 
L 488 750 
Q 750 597 1062 519 
Q 1375 441 1716 441 
Q 2309 441 2620 675 
Q 2931 909 2931 1356 
Q 2931 1769 2642 2001 
Q 2353 2234 1838 2234 
L 1294 2234 
L 1294 2753 
L 1863 2753 
Q 2328 2753 2575 2939 
Q 2822 3125 2822 3475 
Q 2822 3834 2567 4026 
Q 2313 4219 1838 4219 
Q 1578 4219 1281 4162 
Q 984 4106 628 3988 
L 628 4550 
Q 988 4650 1302 4700 
Q 1616 4750 1894 4750 
Q 2613 4750 3031 4423 
Q 3450 4097 3450 3541 
Q 3450 3153 3228 2886 
Q 3006 2619 2597 2516 
z
" transform="scale(0.015625)"/>
       </defs>
       <use xlink:href="#DejaVuSans-4a"/>
       <use xlink:href="#DejaVuSans-61" x="29.492188"/>
       <use xlink:href="#DejaVuSans-6e" x="90.771484"/>
       <use xlink:href="#DejaVuSans-20" x="154.150391"/>
       <use xlink:href="#DejaVuSans-32" x="185.9375"/>
       <use xlink:href="#DejaVuSans-30" x="249.560547"/>
       <use xlink:href="#DejaVuSans-31" x="313.183594"/>
       <use xlink:href="#DejaVuSans-33" x="376.806641"/>
      </g>
     </g>
    </g>
    <g id="xtick_10">
     <g id="line2d_10">
      <path d="M 90.66777 234.005371 
L 90.66777 26.105371 
" clip-path="url(#pdef838d04c)" style="fill: none; stroke: #fafafa"/>
     </g>
    </g>
    <g id="xtick_11">
     <g id="line2d_11">
      <path d="M 135.985316 234.005371 
L 135.985316 26.105371 
" clip-path="url(#pdef838d04c)" style="fill: none; stroke: #fafafa"/>
     </g>
    </g>
    <g id="xtick_12">
     <g id="line2d_12">
      <path d="M 181.302862 234.005371 
L 181.302862 26.105371 
" clip-path="url(#pdef838d04c)" style="fill: none; stroke: #fafafa"/>
     </g>
    </g>
    <g id="xtick_13">
     <g id="line2d_13">
      <path d="M 226.620408 234.005371 
L 226.620408 26.105371 
" clip-path="url(#pdef838d04c)" style="fill: none; stroke: #fafafa"/>
     </g>
    </g>
    <g id="xtick_14">
     <g id="line2d_14">
      <path d="M 271.937954 234.005371 
L 271.937954 26.105371 
" clip-path="url(#pdef838d04c)" style="fill: none; stroke: #fafafa"/>
     </g>
    </g>
    <g id="xtick_15">
     <g id="line2d_15">
      <path d="M 317.2555 234.005371 
L 317.2555 26.105371 
" clip-path="url(#pdef838d04c)" style="fill: none; stroke: #fafafa"/>
     </g>
    </g>
    <g id="xtick_16">
     <g id="line2d_16">
      <path d="M 362.697204 234.005371 
L 362.697204 26.105371 
" clip-path="url(#pdef838d04c)" style="fill: none; stroke: #fafafa"/>
     </g>
    </g>
    <g id="xtick_17">
     <g id="line2d_17">
      <path d="M 408.138907 234.005371 
L 408.138907 26.105371 
" clip-path="url(#pdef838d04c)" style="fill: none; stroke: #fafafa"/>
     </g>
    </g>
   </g>
   <g id="matplotlib.axis_2">
    <g id="ytick_1">
     <g id="line2d_18">
      <path d="M 50.440688 199.903197 
L 441.040688 199.903197 
" clip-path="url(#pdef838d04c)" style="fill: none; stroke: #e5e5e5; stroke-width: 0.8"/>
     </g>
     <g id="text_10">
      <!-- 8 -->
      <g style="fill: #4d4d4d" transform="translate(30.641688 202.331447)scale(0.088 -0.088)">
       <defs>
        <path id="DejaVuSans-38" d="M 2034 2216 
Q 1584 2216 1326 1975 
Q 1069 1734 1069 1313 
Q 1069 891 1326 650 
Q 1584 409 2034 409 
Q 2484 409 2743 651 
Q 3003 894 3003 1313 
Q 3003 1734 2745 1975 
Q 2488 2216 2034 2216 
z
M 1403 2484 
Q 997 2584 770 2862 
Q 544 3141 544 3541 
Q 544 4100 942 4425 
Q 1341 4750 2034 4750 
Q 2731 4750 3128 4425 
Q 3525 4100 3525 3541 
Q 3525 3141 3298 2862 
Q 3072 2584 2669 2484 
Q 3125 2378 3379 2068 
Q 3634 1759 3634 1313 
Q 3634 634 3220 271 
Q 2806 -91 2034 -91 
Q 1263 -91 848 271 
Q 434 634 434 1313 
Q 434 1759 690 2068 
Q 947 2378 1403 2484 
z
M 1172 3481 
Q 1172 3119 1398 2916 
Q 1625 2713 2034 2713 
Q 2441 2713 2670 2916 
Q 2900 3119 2900 3481 
Q 2900 3844 2670 4047 
Q 2441 4250 2034 4250 
Q 1625 4250 1398 4047 
Q 1172 3844 1172 3481 
z
" transform="scale(0.015625)"/>
       </defs>
       <use xlink:href="#DejaVuSans-38"/>
      </g>
     </g>
    </g>
    <g id="ytick_2">
     <g id="line2d_19">
      <path d="M 50.440688 158.81624 
L 441.040688 158.81624 
" clip-path="url(#pdef838d04c)" style="fill: none; stroke: #e5e5e5; stroke-width: 0.8"/>
     </g>
     <g id="text_11">
      <!-- 8.5 -->
      <g style="fill: #4d4d4d" transform="translate(22.245938 161.24449)scale(0.088 -0.088)">
       <defs>
        <path id="DejaVuSans-2e" d="M 684 794 
L 1344 794 
L 1344 0 
L 684 0 
L 684 794 
z
" transform="scale(0.015625)"/>
        <path id="DejaVuSans-35" d="M 691 4666 
L 3169 4666 
L 3169 4134 
L 1269 4134 
L 1269 2991 
Q 1406 3038 1543 3061 
Q 1681 3084 1819 3084 
Q 2600 3084 3056 2656 
Q 3513 2228 3513 1497 
Q 3513 744 3044 326 
Q 2575 -91 1722 -91 
Q 1428 -91 1123 -41 
Q 819 9 494 109 
L 494 744 
Q 775 591 1075 516 
Q 1375 441 1709 441 
Q 2250 441 2565 725 
Q 2881 1009 2881 1497 
Q 2881 1984 2565 2268 
Q 2250 2553 1709 2553 
Q 1456 2553 1204 2497 
Q 953 2441 691 2322 
L 691 4666 
z
" transform="scale(0.015625)"/>
       </defs>
       <use xlink:href="#DejaVuSans-38"/>
       <use xlink:href="#DejaVuSans-2e" x="63.623047"/>
       <use xlink:href="#DejaVuSans-35" x="95.410156"/>
      </g>
     </g>
    </g>
    <g id="ytick_3">
     <g id="line2d_20">
      <path d="M 50.440688 117.729284 
L 441.040688 117.729284 
" clip-path="url(#pdef838d04c)" style="fill: none; stroke: #e5e5e5; stroke-width: 0.8"/>
     </g>
     <g id="text_12">
      <!-- 9 -->
      <g style="fill: #4d4d4d" transform="translate(30.641688 120.157534)scale(0.088 -0.088)">
       <use xlink:href="#DejaVuSans-39"/>
      </g>
     </g>
    </g>
    <g id="ytick_4">
     <g id="line2d_21">
      <path d="M 50.440688 76.642327 
L 441.040688 76.642327 
" clip-path="url(#pdef838d04c)" style="fill: none; stroke: #e5e5e5; stroke-width: 0.8"/>
     </g>
     <g id="text_13">
      <!-- 9.5 -->
      <g style="fill: #4d4d4d" transform="translate(22.245938 79.070577)scale(0.088 -0.088)">
       <use xlink:href="#DejaVuSans-39"/>
       <use xlink:href="#DejaVuSans-2e" x="63.623047"/>
       <use xlink:href="#DejaVuSans-35" x="95.410156"/>
      </g>
     </g>
    </g>
    <g id="ytick_5">
     <g id="line2d_22">
      <path d="M 50.440688 35.555371 
L 441.040688 35.555371 
" clip-path="url(#pdef838d04c)" style="fill: none; stroke: #e5e5e5; stroke-width: 0.8"/>
     </g>
     <g id="text_14">
      <!-- 10 -->
      <g style="fill: #4d4d4d" transform="translate(25.042688 37.983621)scale(0.088 -0.088)">
       <use xlink:href="#DejaVuSans-31"/>
       <use xlink:href="#DejaVuSans-30" x="63.623047"/>
      </g>
     </g>
    </g>
    <g id="ytick_6">
     <g id="line2d_23">
      <path d="M 50.440688 220.446675 
L 441.040688 220.446675 
" clip-path="url(#pdef838d04c)" style="fill: none; stroke: #fafafa"/>
     </g>
    </g>
    <g id="ytick_7">
     <g id="line2d_24">
      <path d="M 50.440688 179.359719 
L 441.040688 179.359719 
" clip-path="url(#pdef838d04c)" style="fill: none; stroke: #fafafa"/>
     </g>
    </g>
    <g id="ytick_8">
     <g id="line2d_25">
      <path d="M 50.440688 138.272762 
L 441.040688 138.272762 
" clip-path="url(#pdef838d04c)" style="fill: none; stroke: #fafafa"/>
     </g>
    </g>
    <g id="ytick_9">
     <g id="line2d_26">
      <path d="M 50.440688 97.185806 
L 441.040688 97.185806 
" clip-path="url(#pdef838d04c)" style="fill: none; stroke: #fafafa"/>
     </g>
    </g>
    <g id="ytick_10">
     <g id="line2d_27">
      <path d="M 50.440688 56.098849 
L 441.040688 56.098849 
" clip-path="url(#pdef838d04c)" style="fill: none; stroke: #fafafa"/>
     </g>
    </g>
    <g id="text_15">
     <!-- Unemployment rate [%] -->
     <g transform="translate(15.558281 195.166855)rotate(-90)scale(0.11 -0.11)">
      <defs>
       <path id="DejaVuSans-55" d="M 556 4666 
L 1191 4666 
L 1191 1831 
Q 1191 1081 1462 751 
Q 1734 422 2344 422 
Q 2950 422 3222 751 
Q 3494 1081 3494 1831 
L 3494 4666 
L 4128 4666 
L 4128 1753 
Q 4128 841 3676 375 
Q 3225 -91 2344 -91 
Q 1459 -91 1007 375 
Q 556 841 556 1753 
L 556 4666 
z
" transform="scale(0.015625)"/>
       <path id="DejaVuSans-65" d="M 3597 1894 
L 3597 1613 
L 953 1613 
Q 991 1019 1311 708 
Q 1631 397 2203 397 
Q 2534 397 2845 478 
Q 3156 559 3463 722 
L 3463 178 
Q 3153 47 2828 -22 
Q 2503 -91 2169 -91 
Q 1331 -91 842 396 
Q 353 884 353 1716 
Q 353 2575 817 3079 
Q 1281 3584 2069 3584 
Q 2775 3584 3186 3129 
Q 3597 2675 3597 1894 
z
M 3022 2063 
Q 3016 2534 2758 2815 
Q 2500 3097 2075 3097 
Q 1594 3097 1305 2825 
Q 1016 2553 972 2059 
L 3022 2063 
z
" transform="scale(0.015625)"/>
       <path id="DejaVuSans-6d" d="M 3328 2828 
Q 3544 3216 3844 3400 
Q 4144 3584 4550 3584 
Q 5097 3584 5394 3201 
Q 5691 2819 5691 2113 
L 5691 0 
L 5113 0 
L 5113 2094 
Q 5113 2597 4934 2840 
Q 4756 3084 4391 3084 
Q 3944 3084 3684 2787 
Q 3425 2491 3425 1978 
L 3425 0 
L 2847 0 
L 2847 2094 
Q 2847 2600 2669 2842 
Q 2491 3084 2119 3084 
Q 1678 3084 1418 2786 
Q 1159 2488 1159 1978 
L 1159 0 
L 581 0 
L 581 3500 
L 1159 3500 
L 1159 2956 
Q 1356 3278 1631 3431 
Q 1906 3584 2284 3584 
Q 2666 3584 2933 3390 
Q 3200 3197 3328 2828 
z
" transform="scale(0.015625)"/>
       <path id="DejaVuSans-70" d="M 1159 525 
L 1159 -1331 
L 581 -1331 
L 581 3500 
L 1159 3500 
L 1159 2969 
Q 1341 3281 1617 3432 
Q 1894 3584 2278 3584 
Q 2916 3584 3314 3078 
Q 3713 2572 3713 1747 
Q 3713 922 3314 415 
Q 2916 -91 2278 -91 
Q 1894 -91 1617 61 
Q 1341 213 1159 525 
z
M 3116 1747 
Q 3116 2381 2855 2742 
Q 2594 3103 2138 3103 
Q 1681 3103 1420 2742 
Q 1159 2381 1159 1747 
Q 1159 1113 1420 752 
Q 1681 391 2138 391 
Q 2594 391 2855 752 
Q 3116 1113 3116 1747 
z
" transform="scale(0.015625)"/>
       <path id="DejaVuSans-6f" d="M 1959 3097 
Q 1497 3097 1228 2736 
Q 959 2375 959 1747 
Q 959 1119 1226 758 
Q 1494 397 1959 397 
Q 2419 397 2687 759 
Q 2956 1122 2956 1747 
Q 2956 2369 2687 2733 
Q 2419 3097 1959 3097 
z
M 1959 3584 
Q 2709 3584 3137 3096 
Q 3566 2609 3566 1747 
Q 3566 888 3137 398 
Q 2709 -91 1959 -91 
Q 1206 -91 779 398 
Q 353 888 353 1747 
Q 353 2609 779 3096 
Q 1206 3584 1959 3584 
z
" transform="scale(0.015625)"/>
       <path id="DejaVuSans-79" d="M 2059 -325 
Q 1816 -950 1584 -1140 
Q 1353 -1331 966 -1331 
L 506 -1331 
L 506 -850 
L 844 -850 
Q 1081 -850 1212 -737 
Q 1344 -625 1503 -206 
L 1606 56 
L 191 3500 
L 800 3500 
L 1894 763 
L 2988 3500 
L 3597 3500 
L 2059 -325 
z
" transform="scale(0.015625)"/>
       <path id="DejaVuSans-74" d="M 1172 4494 
L 1172 3500 
L 2356 3500 
L 2356 3053 
L 1172 3053 
L 1172 1153 
Q 1172 725 1289 603 
Q 1406 481 1766 481 
L 2356 481 
L 2356 0 
L 1766 0 
Q 1100 0 847 248 
Q 594 497 594 1153 
L 594 3053 
L 172 3053 
L 172 3500 
L 594 3500 
L 594 4494 
L 1172 4494 
z
" transform="scale(0.015625)"/>
       <path id="DejaVuSans-72" d="M 2631 2963 
Q 2534 3019 2420 3045 
Q 2306 3072 2169 3072 
Q 1681 3072 1420 2755 
Q 1159 2438 1159 1844 
L 1159 0 
L 581 0 
L 581 3500 
L 1159 3500 
L 1159 2956 
Q 1341 3275 1631 3429 
Q 1922 3584 2338 3584 
Q 2397 3584 2469 3576 
Q 2541 3569 2628 3553 
L 2631 2963 
z
" transform="scale(0.015625)"/>
       <path id="DejaVuSans-5b" d="M 550 4863 
L 1875 4863 
L 1875 4416 
L 1125 4416 
L 1125 -397 
L 1875 -397 
L 1875 -844 
L 550 -844 
L 550 4863 
z
" transform="scale(0.015625)"/>
       <path id="DejaVuSans-25" d="M 4653 2053 
Q 4381 2053 4226 1822 
Q 4072 1591 4072 1178 
Q 4072 772 4226 539 
Q 4381 306 4653 306 
Q 4919 306 5073 539 
Q 5228 772 5228 1178 
Q 5228 1588 5073 1820 
Q 4919 2053 4653 2053 
z
M 4653 2450 
Q 5147 2450 5437 2106 
Q 5728 1763 5728 1178 
Q 5728 594 5436 251 
Q 5144 -91 4653 -91 
Q 4153 -91 3862 251 
Q 3572 594 3572 1178 
Q 3572 1766 3864 2108 
Q 4156 2450 4653 2450 
z
M 1428 4353 
Q 1159 4353 1004 4120 
Q 850 3888 850 3481 
Q 850 3069 1003 2837 
Q 1156 2606 1428 2606 
Q 1700 2606 1854 2837 
Q 2009 3069 2009 3481 
Q 2009 3884 1853 4118 
Q 1697 4353 1428 4353 
z
M 4250 4750 
L 4750 4750 
L 1831 -91 
L 1331 -91 
L 4250 4750 
z
M 1428 4750 
Q 1922 4750 2215 4408 
Q 2509 4066 2509 3481 
Q 2509 2891 2217 2550 
Q 1925 2209 1428 2209 
Q 931 2209 642 2551 
Q 353 2894 353 3481 
Q 353 4063 643 4406 
Q 934 4750 1428 4750 
z
" transform="scale(0.015625)"/>
       <path id="DejaVuSans-5d" d="M 1947 4863 
L 1947 -844 
L 622 -844 
L 622 -397 
L 1369 -397 
L 1369 4416 
L 622 4416 
L 622 4863 
L 1947 4863 
z
" transform="scale(0.015625)"/>
      </defs>
      <use xlink:href="#DejaVuSans-55"/>
      <use xlink:href="#DejaVuSans-6e" x="73.193359"/>
      <use xlink:href="#DejaVuSans-65" x="136.572266"/>
      <use xlink:href="#DejaVuSans-6d" x="198.095703"/>
      <use xlink:href="#DejaVuSans-70" x="295.507812"/>
      <use xlink:href="#DejaVuSans-6c" x="358.984375"/>
      <use xlink:href="#DejaVuSans-6f" x="386.767578"/>
      <use xlink:href="#DejaVuSans-79" x="447.949219"/>
      <use xlink:href="#DejaVuSans-6d" x="507.128906"/>
      <use xlink:href="#DejaVuSans-65" x="604.541016"/>
      <use xlink:href="#DejaVuSans-6e" x="666.064453"/>
      <use xlink:href="#DejaVuSans-74" x="729.443359"/>
      <use xlink:href="#DejaVuSans-20" x="768.652344"/>
      <use xlink:href="#DejaVuSans-72" x="800.439453"/>
      <use xlink:href="#DejaVuSans-61" x="841.552734"/>
      <use xlink:href="#DejaVuSans-74" x="902.832031"/>
      <use xlink:href="#DejaVuSans-65" x="942.041016"/>
      <use xlink:href="#DejaVuSans-20" x="1003.564453"/>
      <use xlink:href="#DejaVuSans-5b" x="1035.351562"/>
      <use xlink:href="#DejaVuSans-25" x="1074.365234"/>
      <use xlink:href="#DejaVuSans-5d" x="1169.384766"/>
     </g>
    </g>
   </g>
   <g id="line2d_28">
    <path d="M 68.195233 216.337979 
L 75.893008 175.251023 
L 82.845837 142.381458 
L 90.543612 117.729284 
L 97.993071 84.859719 
L 105.690846 76.642327 
L 113.140306 76.642327 
L 120.838081 68.424936 
L 128.535856 51.990153 
L 135.985316 35.555371 
L 143.683091 43.772762 
L 151.13255 43.772762 
L 158.830325 51.990153 
L 166.5281 51.990153 
L 173.480929 43.772762 
L 181.178704 43.772762 
L 188.628164 68.424936 
L 196.325939 84.859719 
L 203.775398 84.859719 
L 211.473173 76.642327 
L 219.170948 76.642327 
L 226.620408 84.859719 
L 234.318183 51.990153 
L 241.767642 93.07711 
L 249.465417 109.511892 
L 257.163192 117.729284 
L 264.116021 117.729284 
L 271.813796 109.511892 
L 279.263256 117.729284 
L 286.961031 109.511892 
L 294.41049 117.729284 
L 302.108265 117.729284 
L 309.80604 117.729284 
L 317.2555 134.164066 
L 324.953275 150.598849 
L 332.402735 158.81624 
L 340.100509 175.251023 
L 347.798284 175.251023 
L 354.999429 183.468414 
L 362.697204 183.468414 
L 370.146663 183.468414 
L 377.844438 183.468414 
L 385.293898 183.468414 
L 392.991673 191.685806 
L 400.689448 216.337979 
L 408.138907 216.337979 
L 415.836682 224.555371 
L 423.286142 208.120588 
" clip-path="url(#pdef838d04c)" style="fill: none; stroke: #000000; stroke-width: 2.658681"/>
   </g>
   <g id="LineCollection_1">
    <path d="M 50.440688 199.903197 
L 441.040688 199.903197 
" clip-path="url(#pdef838d04c)" style="fill: none; stroke-dasharray: 13.116158,5.671852; stroke-dashoffset: 0; stroke: #ff0000; stroke-width: 3.544908"/>
   </g>
   <g id="PolyCollection_1">
    <path d="M 68.195233 199.903197 
L 68.195233 199.903197 
L 75.893008 199.903197 
L 82.845837 199.903197 
L 90.543612 199.903197 
L 97.993071 199.903197 
L 105.690846 199.903197 
L 113.140306 199.903197 
L 120.838081 199.903197 
L 128.535856 199.903197 
L 135.985316 199.903197 
L 143.683091 199.903197 
L 151.13255 199.903197 
L 158.830325 199.903197 
L 166.5281 199.903197 
L 173.480929 199.903197 
L 181.178704 199.903197 
L 188.628164 199.903197 
L 196.325939 199.903197 
L 203.775398 199.903197 
L 211.473173 199.903197 
L 219.170948 199.903197 
L 226.620408 199.903197 
L 234.318183 199.903197 
L 241.767642 199.903197 
L 249.465417 199.903197 
L 257.163192 199.903197 
L 264.116021 199.903197 
L 271.813796 199.903197 
L 279.263256 199.903197 
L 286.961031 199.903197 
L 294.41049 199.903197 
L 302.108265 199.903197 
L 309.80604 199.903197 
L 317.2555 199.903197 
L 324.953275 199.903197 
L 332.402735 199.903197 
L 340.100509 199.903197 
L 347.798284 199.903197 
L 354.999429 199.903197 
L 362.697204 199.903197 
L 370.146663 199.903197 
L 377.844438 199.903197 
L 385.293898 199.903197 
L 392.991673 199.903197 
L 400.689448 199.903197 
L 408.138907 199.903197 
L 415.836682 199.903197 
L 423.286142 199.903197 
L 423.286142 199.903197 
L 423.286142 199.903197 
L 415.836682 199.903197 
L 408.138907 199.903197 
L 400.689448 199.903197 
L 392.991673 191.685806 
L 385.293898 183.468414 
L 377.844438 183.468414 
L 370.146663 183.468414 
L 362.697204 183.468414 
L 354.999429 183.468414 
L 347.798284 175.251023 
L 340.100509 175.251023 
L 332.402735 158.81624 
L 324.953275 150.598849 
L 317.2555 134.164066 
L 309.80604 117.729284 
L 302.108265 117.729284 
L 294.41049 117.729284 
L 286.961031 109.511892 
L 279.263256 117.729284 
L 271.813796 109.511892 
L 264.116021 117.729284 
L 257.163192 117.729284 
L 249.465417 109.511892 
L 241.767642 93.07711 
L 234.318183 51.990153 
L 226.620408 84.859719 
L 219.170948 76.642327 
L 211.473173 76.642327 
L 203.775398 84.859719 
L 196.325939 84.859719 
L 188.628164 68.424936 
L 181.178704 43.772762 
L 173.480929 43.772762 
L 166.5281 51.990153 
L 158.830325 51.990153 
L 151.13255 43.772762 
L 143.683091 43.772762 
L 135.985316 35.555371 
L 128.535856 51.990153 
L 120.838081 68.424936 
L 113.140306 76.642327 
L 105.690846 76.642327 
L 97.993071 84.859719 
L 90.543612 117.729284 
L 82.845837 142.381458 
L 75.893008 175.251023 
L 68.195233 199.903197 
z
" clip-path="url(#pdef838d04c)" style="fill: #ff0000; fill-opacity: 0.4"/>
   </g>
   <g id="line2d_29">
    <path d="M 68.195233 199.903197 
L 75.893008 199.903197 
L 82.845837 199.903197 
L 90.543612 199.903197 
L 97.993071 199.903197 
L 105.690846 199.903197 
L 113.140306 199.903197 
L 120.838081 199.903197 
L 128.535856 199.903197 
L 135.985316 199.903197 
L 143.683091 199.903197 
L 151.13255 199.903197 
L 158.830325 199.903197 
L 166.5281 199.903197 
L 173.480929 199.903197 
L 181.178704 199.903197 
L 188.628164 199.903197 
L 196.325939 199.903197 
L 203.775398 199.903197 
L 211.473173 199.903197 
L 219.170948 199.903197 
L 226.620408 199.903197 
L 234.318183 199.903197 
L 241.767642 199.903197 
L 249.465417 199.903197 
L 257.163192 199.903197 
L 264.116021 199.903197 
L 271.813796 199.903197 
L 279.263256 199.903197 
L 286.961031 199.903197 
L 294.41049 199.903197 
L 302.108265 199.903197 
L 309.80604 199.903197 
L 317.2555 199.903197 
L 324.953275 199.903197 
L 332.402735 199.903197 
L 340.100509 199.903197 
L 347.798284 199.903197 
L 354.999429 199.903197 
L 362.697204 199.903197 
L 370.146663 199.903197 
L 377.844438 199.903197 
L 385.293898 199.903197 
L 392.991673 199.903197 
L 400.689448 199.903197 
L 408.138907 199.903197 
L 415.836682 199.903197 
L 423.286142 199.903197 
" clip-path="url(#pdef838d04c)" style="fill: none; stroke: #000000; stroke-opacity: 0; stroke-width: 0.886227; stroke-linejoin: miter"/>
   </g>
   <g id="line2d_30">
    <path d="M 68.195233 199.903197 
L 75.893008 175.251023 
L 82.845837 142.381458 
L 90.543612 117.729284 
L 97.993071 84.859719 
L 105.690846 76.642327 
L 113.140306 76.642327 
L 120.838081 68.424936 
L 128.535856 51.990153 
L 135.985316 35.555371 
L 143.683091 43.772762 
L 151.13255 43.772762 
L 158.830325 51.990153 
L 166.5281 51.990153 
L 173.480929 43.772762 
L 181.178704 43.772762 
L 188.628164 68.424936 
L 196.325939 84.859719 
L 203.775398 84.859719 
L 211.473173 76.642327 
L 219.170948 76.642327 
L 226.620408 84.859719 
L 234.318183 51.990153 
L 241.767642 93.07711 
L 249.465417 109.511892 
L 257.163192 117.729284 
L 264.116021 117.729284 
L 271.813796 109.511892 
L 279.263256 117.729284 
L 286.961031 109.511892 
L 294.41049 117.729284 
L 302.108265 117.729284 
L 309.80604 117.729284 
L 317.2555 134.164066 
L 324.953275 150.598849 
L 332.402735 158.81624 
L 340.100509 175.251023 
L 347.798284 175.251023 
L 354.999429 183.468414 
L 362.697204 183.468414 
L 370.146663 183.468414 
L 377.844438 183.468414 
L 385.293898 183.468414 
L 392.991673 191.685806 
L 400.689448 199.903197 
L 408.138907 199.903197 
L 415.836682 199.903197 
L 423.286142 199.903197 
" clip-path="url(#pdef838d04c)" style="fill: none; stroke: #000000; stroke-opacity: 0; stroke-width: 0.886227; stroke-linejoin: miter"/>
   </g>
  </g>
  <g id="text_16">
   <!-- Obama promised below 8% unemployment 2011 -->
   <g transform="translate(77.433375 17.229937)scale(0.132 -0.132)">
    <defs>
     <path id="DejaVuSans-4f" d="M 2522 4238 
Q 1834 4238 1429 3725 
Q 1025 3213 1025 2328 
Q 1025 1447 1429 934 
Q 1834 422 2522 422 
Q 3209 422 3611 934 
Q 4013 1447 4013 2328 
Q 4013 3213 3611 3725 
Q 3209 4238 2522 4238 
z
M 2522 4750 
Q 3503 4750 4090 4092 
Q 4678 3434 4678 2328 
Q 4678 1225 4090 567 
Q 3503 -91 2522 -91 
Q 1538 -91 948 565 
Q 359 1222 359 2328 
Q 359 3434 948 4092 
Q 1538 4750 2522 4750 
z
" transform="scale(0.015625)"/>
     <path id="DejaVuSans-62" d="M 3116 1747 
Q 3116 2381 2855 2742 
Q 2594 3103 2138 3103 
Q 1681 3103 1420 2742 
Q 1159 2381 1159 1747 
Q 1159 1113 1420 752 
Q 1681 391 2138 391 
Q 2594 391 2855 752 
Q 3116 1113 3116 1747 
z
M 1159 2969 
Q 1341 3281 1617 3432 
Q 1894 3584 2278 3584 
Q 2916 3584 3314 3078 
Q 3713 2572 3713 1747 
Q 3713 922 3314 415 
Q 2916 -91 2278 -91 
Q 1894 -91 1617 61 
Q 1341 213 1159 525 
L 1159 0 
L 581 0 
L 581 4863 
L 1159 4863 
L 1159 2969 
z
" transform="scale(0.015625)"/>
     <path id="DejaVuSans-69" d="M 603 3500 
L 1178 3500 
L 1178 0 
L 603 0 
L 603 3500 
z
M 603 4863 
L 1178 4863 
L 1178 4134 
L 603 4134 
L 603 4863 
z
" transform="scale(0.015625)"/>
     <path id="DejaVuSans-73" d="M 2834 3397 
L 2834 2853 
Q 2591 2978 2328 3040 
Q 2066 3103 1784 3103 
Q 1356 3103 1142 2972 
Q 928 2841 928 2578 
Q 928 2378 1081 2264 
Q 1234 2150 1697 2047 
L 1894 2003 
Q 2506 1872 2764 1633 
Q 3022 1394 3022 966 
Q 3022 478 2636 193 
Q 2250 -91 1575 -91 
Q 1294 -91 989 -36 
Q 684 19 347 128 
L 347 722 
Q 666 556 975 473 
Q 1284 391 1588 391 
Q 1994 391 2212 530 
Q 2431 669 2431 922 
Q 2431 1156 2273 1281 
Q 2116 1406 1581 1522 
L 1381 1569 
Q 847 1681 609 1914 
Q 372 2147 372 2553 
Q 372 3047 722 3315 
Q 1072 3584 1716 3584 
Q 2034 3584 2315 3537 
Q 2597 3491 2834 3397 
z
" transform="scale(0.015625)"/>
     <path id="DejaVuSans-64" d="M 2906 2969 
L 2906 4863 
L 3481 4863 
L 3481 0 
L 2906 0 
L 2906 525 
Q 2725 213 2448 61 
Q 2172 -91 1784 -91 
Q 1150 -91 751 415 
Q 353 922 353 1747 
Q 353 2572 751 3078 
Q 1150 3584 1784 3584 
Q 2172 3584 2448 3432 
Q 2725 3281 2906 2969 
z
M 947 1747 
Q 947 1113 1208 752 
Q 1469 391 1925 391 
Q 2381 391 2643 752 
Q 2906 1113 2906 1747 
Q 2906 2381 2643 2742 
Q 2381 3103 1925 3103 
Q 1469 3103 1208 2742 
Q 947 2381 947 1747 
z
" transform="scale(0.015625)"/>
     <path id="DejaVuSans-77" d="M 269 3500 
L 844 3500 
L 1563 769 
L 2278 3500 
L 2956 3500 
L 3675 769 
L 4391 3500 
L 4966 3500 
L 4050 0 
L 3372 0 
L 2619 2869 
L 1863 0 
L 1184 0 
L 269 3500 
z
" transform="scale(0.015625)"/>
    </defs>
    <use xlink:href="#DejaVuSans-4f"/>
    <use xlink:href="#DejaVuSans-62" x="78.710938"/>
    <use xlink:href="#DejaVuSans-61" x="142.1875"/>
    <use xlink:href="#DejaVuSans-6d" x="203.466797"/>
    <use xlink:href="#DejaVuSans-61" x="300.878906"/>
    <use xlink:href="#DejaVuSans-20" x="362.158203"/>
    <use xlink:href="#DejaVuSans-70" x="393.945312"/>
    <use xlink:href="#DejaVuSans-72" x="457.421875"/>
    <use xlink:href="#DejaVuSans-6f" x="496.285156"/>
    <use xlink:href="#DejaVuSans-6d" x="557.466797"/>
    <use xlink:href="#DejaVuSans-69" x="654.878906"/>
    <use xlink:href="#DejaVuSans-73" x="682.662109"/>
    <use xlink:href="#DejaVuSans-65" x="734.761719"/>
    <use xlink:href="#DejaVuSans-64" x="796.285156"/>
    <use xlink:href="#DejaVuSans-20" x="859.761719"/>
    <use xlink:href="#DejaVuSans-62" x="891.548828"/>
    <use xlink:href="#DejaVuSans-65" x="955.025391"/>
    <use xlink:href="#DejaVuSans-6c" x="1016.548828"/>
    <use xlink:href="#DejaVuSans-6f" x="1044.332031"/>
    <use xlink:href="#DejaVuSans-77" x="1105.513672"/>
    <use xlink:href="#DejaVuSans-20" x="1187.300781"/>
    <use xlink:href="#DejaVuSans-38" x="1219.087891"/>
    <use xlink:href="#DejaVuSans-25" x="1282.710938"/>
    <use xlink:href="#DejaVuSans-20" x="1377.730469"/>
    <use xlink:href="#DejaVuSans-75" x="1409.517578"/>
    <use xlink:href="#DejaVuSans-6e" x="1472.896484"/>
    <use xlink:href="#DejaVuSans-65" x="1536.275391"/>
    <use xlink:href="#DejaVuSans-6d" x="1597.798828"/>
    <use xlink:href="#DejaVuSans-70" x="1695.210938"/>
    <use xlink:href="#DejaVuSans-6c" x="1758.6875"/>
    <use xlink:href="#DejaVuSans-6f" x="1786.470703"/>
    <use xlink:href="#DejaVuSans-79" x="1847.652344"/>
    <use xlink:href="#DejaVuSans-6d" x="1906.832031"/>
    <use xlink:href="#DejaVuSans-65" x="2004.244141"/>
    <use xlink:href="#DejaVuSans-6e" x="2065.767578"/>
    <use xlink:href="#DejaVuSans-74" x="2129.146484"/>
    <use xlink:href="#DejaVuSans-20" x="2168.355469"/>
    <use xlink:href="#DejaVuSans-32" x="2200.142578"/>
    <use xlink:href="#DejaVuSans-30" x="2263.765625"/>
    <use xlink:href="#DejaVuSans-31" x="2327.388672"/>
    <use xlink:href="#DejaVuSans-31" x="2391.011719"/>
   </g>
  </g>
 </g>
 <defs>
  <clipPath id="pdef838d04c">
   <rect x="50.440688" y="26.105371" width="390.6" height="207.9"/>
  </clipPath>
 </defs>
</svg>
